<svg width="40" height="40" viewBox="0 0 40 40" fill="none" xmlns="http://www.w3.org/2000/svg">
<g clip-path="url(#clip0_111_454)">
<path d="M19.9071 5.45313e-06C30.8444 5.45313e-06 39.715 8.96205 39.715 20.0091C39.715 31.0014 30.8079 40.0366 19.9254 40C8.86182 39.9451 0.320438 31.0014 0.154 20.3201C-0.0087797 8.94376 9.11605 -0.0548642 19.9071 5.45313e-06ZM0.667946 19.9726C0.686236 30.7636 9.30078 39.4879 19.9455 39.4879C30.5902 39.4879 39.2413 30.7087 39.223 19.9177C39.2048 9.16324 30.4988 0.457253 19.7992 0.475543C9.28249 0.493833 0.649657 9.29127 0.667946 19.9726Z" fill="#0C7550"/>
<path d="M7.38013 9.96801C7.41836 9.96622 7.45456 9.95024 7.48162 9.92317C7.50868 9.89611 7.52467 9.85992 7.52645 9.82169C7.52645 9.71195 7.41671 9.6205 7.38013 9.67537L6.52051 9.78511V9.93143C6.84973 9.8034 7.10578 9.91314 7.38013 9.96801Z" fill="#17704F"/>
<path d="M7.03297 10.4618C7.0712 10.46 7.10739 10.4441 7.13445 10.417C7.16152 10.3899 7.1775 10.3537 7.17928 10.3155C7.17928 10.2058 7.12441 10.1692 7.03297 10.1692L6.17334 10.3155V10.4618C6.50256 10.3338 6.75862 10.4252 7.03297 10.4618Z" fill="#17704F"/>
<path d="M6.72211 10.9739C6.76034 10.9722 6.79654 10.9562 6.8236 10.9291C6.85066 10.902 6.86665 10.8659 6.86843 10.8276C6.86843 10.7179 6.75869 10.6813 6.66724 10.6813L5.80762 10.8825L5.86249 10.9922C6.20999 10.8459 6.46605 10.9374 6.72211 10.9739Z" fill="#17704F"/>
<path d="M6.3725 11.5409C6.48224 11.5409 6.51882 11.4861 6.51882 11.3946C6.46395 11.2849 6.40908 11.2483 6.31763 11.2483L5.45801 11.5043L5.51288 11.6141C5.78894 11.5189 6.08432 11.4938 6.3725 11.5409Z" fill="#17704F"/>
<path d="M6.06369 12.0896C6.11856 12.0896 6.17342 11.9799 6.17342 11.8884C6.17342 11.8336 6.06369 11.7787 5.97224 11.7787L5.16748 12.1262L5.22235 12.2359C5.48897 12.1271 5.77597 12.0772 6.06369 12.0896Z" fill="#17704F"/>
<path d="M5.66085 12.7481C5.71572 12.7481 5.77059 12.6383 5.77059 12.6017C5.77059 12.492 5.66085 12.4554 5.5694 12.4554L4.76465 12.8029L4.81952 12.9127C5.08174 12.7882 5.37105 12.7316 5.66085 12.7481Z" fill="#17704F"/>
<path d="M5.40499 13.3699C5.51473 13.3699 5.55131 13.2602 5.51473 13.1687C5.51473 13.1139 5.40499 13.059 5.31354 13.059L4.50879 13.3699L4.56366 13.5162C4.82452 13.3886 5.11634 13.3378 5.40499 13.3699Z" fill="#17704F"/>
<path d="M5.20382 13.9735C5.31356 13.9186 5.35014 13.8637 5.31356 13.7723C5.31356 13.6626 5.20382 13.626 5.11237 13.6626L4.30762 13.9735L4.36249 14.0832C4.62852 13.9738 4.91861 13.9359 5.20382 13.9735Z" fill="#17704F"/>
<path d="M5.00287 14.5405C5.03908 14.5099 5.06412 14.4682 5.07405 14.4218C5.08398 14.3755 5.07824 14.3272 5.05774 14.2844C5.05774 14.2296 4.948 14.1747 4.85655 14.1747L4.08838 14.5771L4.14325 14.6868C4.41012 14.5575 4.70825 14.5068 5.00287 14.5405Z" fill="#17704F"/>
<path d="M4.74683 15.1989C4.85657 15.1989 4.89315 15.0892 4.85657 14.9977C4.85657 14.9429 4.74683 14.888 4.65538 14.9429L3.88721 15.3452L3.94208 15.455C4.19551 15.3286 4.46697 15.2422 4.74683 15.1989Z" fill="#17704F"/>
<path d="M4.54371 15.9122C4.65345 15.9122 4.69003 15.8025 4.65345 15.711C4.62964 15.6795 4.59938 15.6534 4.56469 15.6345C4.52999 15.6155 4.49167 15.6042 4.45226 15.6013L3.68408 16.0585L3.73895 16.1683C3.99238 16.0419 4.26385 15.9555 4.54371 15.9122Z" fill="#17704F"/>
<path d="M7.83588 9.45588C7.87384 9.45331 7.90959 9.43707 7.93649 9.41017C7.96339 9.38326 7.97963 9.34752 7.9822 9.30956C7.9822 9.19982 7.87246 9.16324 7.78101 9.16324L6.92139 9.30956V9.4193C7.22375 9.34686 7.54027 9.35952 7.83588 9.45588Z" fill="#17704F"/>
<path d="M8.25824 8.94376C8.29621 8.94119 8.33195 8.92495 8.35885 8.89805C8.38576 8.87115 8.402 8.8354 8.40456 8.79744C8.34969 8.6877 8.29482 8.65112 8.20337 8.65112L7.34375 8.79744V8.90718C7.64625 8.83616 7.96238 8.8488 8.25824 8.94376Z" fill="#17704F"/>
<path d="M8.71558 8.48652C8.82532 8.48652 8.8619 8.37678 8.8619 8.28533C8.85933 8.24737 8.84309 8.21162 8.81619 8.18472C8.78929 8.15782 8.75354 8.14158 8.71558 8.13901L7.85596 8.28533V8.39507C8.14559 8.35076 8.44176 8.38227 8.71558 8.48652Z" fill="#17704F"/>
<path d="M9.06311 7.93781C9.17285 7.88294 9.20943 7.82807 9.20943 7.73662C9.20943 7.64517 9.09969 7.5903 9.00824 7.5903L8.20166 7.84636V7.99268C8.51259 7.80978 8.78694 7.90123 9.06129 7.93781" fill="#17704F"/>
<path d="M7.9472 7.2245C7.9472 7.11476 7.83746 7.07818 7.74602 7.11476C7.63628 7.11476 7.5997 7.2245 7.63628 7.31595L7.9472 8.12071L8.05694 8.06584C7.95899 7.79686 7.92152 7.5096 7.9472 7.2245Z" fill="#17704F"/>
<path d="M7.49013 7.57202C7.49013 7.51715 7.38039 7.46228 7.28894 7.46228C7.23407 7.46228 7.1792 7.57202 7.1792 7.66347L7.49013 8.46822H7.59987C7.49175 8.18266 7.4541 7.87523 7.49013 7.57202Z" fill="#17704F"/>
<path d="M7.03265 8.02928C7.03265 7.91954 6.92291 7.88296 6.83146 7.91954C6.72172 7.91954 6.68515 8.02928 6.72173 8.12073L7.1241 9.09009H7.23384C7.09842 8.75294 7.03008 8.3926 7.03265 8.02928Z" fill="#17704F"/>
<path d="M6.63022 8.48653C6.61313 8.44618 6.58537 8.41124 6.54993 8.38546C6.51448 8.35968 6.47269 8.34404 6.42903 8.34021C6.3193 8.39508 6.28271 8.44995 6.28271 8.5414L6.68509 9.56563L6.79483 9.51076C6.57535 9.14497 6.61193 8.79746 6.63022 8.48653Z" fill="#17704F"/>
<path d="M6.20985 8.88888C6.20985 8.77914 6.10011 8.77914 6.00866 8.77914C5.97712 8.80295 5.95102 8.83321 5.9321 8.8679C5.91318 8.9026 5.90187 8.94092 5.89893 8.98033L6.35617 9.9497H6.46591C6.30377 9.61916 6.21635 9.25699 6.20985 8.88888Z" fill="#17704F"/>
<path d="M5.77072 9.45587C5.74691 9.42433 5.71665 9.39823 5.68196 9.3793C5.64727 9.36038 5.60894 9.34907 5.56953 9.34613C5.54541 9.3556 5.5234 9.36976 5.50479 9.3878C5.48618 9.40584 5.47135 9.4274 5.46114 9.45122C5.45093 9.47504 5.44555 9.50065 5.44532 9.52657C5.44509 9.55249 5.45001 9.57819 5.45979 9.60219L5.91704 10.5716L6.02678 10.5167C5.84784 10.1924 5.7594 9.82604 5.77072 9.45587Z" fill="#17704F"/>
<path d="M5.34999 10.0594C5.34999 9.94971 5.24025 9.94971 5.1488 9.94971C5.09162 10.0033 5.05315 10.0738 5.03906 10.1509L5.49631 11.1203L5.60605 11.0654C5.43417 10.7582 5.34588 10.4114 5.34999 10.0594Z" fill="#17704F"/>
<path d="M5.00242 10.5716C5.00242 10.5167 4.89268 10.4618 4.80123 10.5167C4.74636 10.5167 4.69149 10.6264 4.74636 10.7179L5.25848 11.6324L5.36822 11.5775C5.17991 11.2702 5.0555 10.928 5.00242 10.5716Z" fill="#17704F"/>
<path d="M4.72629 11.1203C4.70854 11.0831 4.67955 11.0526 4.64344 11.0329C4.60732 11.0132 4.56591 11.0054 4.5251 11.0105C4.50097 11.02 4.47897 11.0342 4.46036 11.0522C4.44175 11.0702 4.42691 11.0918 4.4167 11.1156C4.40649 11.1394 4.40112 11.1651 4.40089 11.191C4.40066 11.2169 4.40558 11.2426 4.41536 11.2666L4.92748 12.1811L5.0738 12.1262C4.87261 11.797 4.708 11.4861 4.72629 11.1203Z" fill="#17704F"/>
<path d="M4.34435 11.6872C4.28948 11.6324 4.19803 11.5775 4.14316 11.6324C4.03342 11.6872 4.03342 11.7787 4.08829 11.8884L4.69185 12.7481L4.80159 12.6932C4.57595 12.3962 4.41971 12.0525 4.34435 11.6872Z" fill="#17704F"/>
<path d="M4.08832 12.2908C4.03345 12.236 3.942 12.1811 3.88713 12.236C3.77739 12.2908 3.74081 12.3823 3.77739 12.4371L4.38096 13.3516L4.4907 13.2968C4.29319 12.9904 4.15657 12.6489 4.08832 12.2908Z" fill="#17704F"/>
<path d="M3.83214 12.7481C3.77727 12.6932 3.68582 12.6383 3.63095 12.6932C3.52121 12.7481 3.52121 12.8395 3.57608 12.9493L4.23452 13.754L4.34426 13.6991C4.09401 13.4319 3.91754 13.1041 3.83214 12.7481Z" fill="#17704F"/>
<path d="M3.57628 13.2602C3.52141 13.1505 3.42996 13.1505 3.37509 13.2053C3.26535 13.2602 3.26535 13.3516 3.32022 13.4065L4.03353 14.2113L4.14327 14.1564C3.88951 13.9039 3.69573 13.5976 3.57628 13.2602Z" fill="#17704F"/>
<path d="M3.4298 13.7723C3.40306 13.7457 3.3669 13.7308 3.3292 13.7308C3.2915 13.7308 3.25534 13.7457 3.22861 13.7723C3.11887 13.8272 3.11887 13.9186 3.17374 13.9735L3.83217 14.7783L3.94191 14.7234C3.68853 14.4584 3.51157 14.1297 3.4298 13.7723Z" fill="#17704F"/>
<path d="M3.17368 14.4856C3.11881 14.3759 3.02736 14.3759 2.91762 14.4307C2.86275 14.4856 2.86275 14.577 2.91762 14.6868L3.62909 15.455L3.73883 15.3452C3.4903 15.1027 3.29692 14.8095 3.17185 14.4856" fill="#17704F"/>
<path d="M2.97263 15.0892C2.9459 15.0626 2.90974 15.0477 2.87204 15.0477C2.83434 15.0477 2.79818 15.0626 2.77145 15.0892C2.71658 15.144 2.66171 15.2355 2.71658 15.2904L3.48475 16.0951L3.59449 15.9854C3.32326 15.7365 3.11084 15.4304 2.97263 15.0892Z" fill="#17704F"/>
<path d="M2.80782 15.9122C2.69808 15.8573 2.60663 15.8025 2.55176 15.9122C2.52517 15.9389 2.51025 15.9751 2.51025 16.0128C2.51025 16.0505 2.52517 16.0867 2.55176 16.1134L3.31993 16.8633L3.42967 16.7535C3.1442 16.5403 2.9279 16.2477 2.80782 15.9122Z" fill="#17704F"/>
<path d="M2.71455 16.7718C2.69954 16.7521 2.68017 16.7362 2.65796 16.7252C2.63575 16.7142 2.61131 16.7084 2.58652 16.7084C2.56174 16.7084 2.5373 16.7142 2.51509 16.7252C2.49288 16.7362 2.47351 16.7521 2.4585 16.7718C2.43191 16.7986 2.41699 16.8347 2.41699 16.8724C2.41699 16.9101 2.43191 16.9463 2.4585 16.973L3.22667 17.7412L3.33641 17.6315C3.06876 17.3939 2.85648 17.1004 2.71455 16.7718Z" fill="#17704F"/>
<path d="M2.57002 17.7412C2.51515 17.6863 2.4237 17.6863 2.31396 17.7412C2.28738 17.7679 2.27246 17.8041 2.27246 17.8418C2.27246 17.8795 2.28738 17.9157 2.31396 17.9424L3.08214 18.7106L3.19188 18.6557C2.88095 18.3448 2.64318 18.0887 2.57002 17.7412Z" fill="#17704F"/>
<path d="M2.46035 18.6923C2.40548 18.6374 2.31403 18.5825 2.25916 18.6923C2.20429 18.7471 2.14942 18.8386 2.25916 18.8935L3.02733 19.6068L3.13707 19.5519C2.84721 19.3224 2.6154 19.0279 2.46035 18.6923Z" fill="#17704F"/>
<path d="M2.4603 19.6617C2.35056 19.5519 2.25911 19.5519 2.20424 19.6068C2.14937 19.7165 2.14937 19.808 2.20424 19.8628L3.00899 20.5213L3.11873 20.4664C2.84036 20.2523 2.61505 19.9769 2.4603 19.6617Z" fill="#17704F"/>
<path d="M2.40538 20.5213C2.29564 20.4664 2.20419 20.4664 2.14932 20.5213C2.09445 20.631 2.09445 20.7224 2.20419 20.7773L3.11869 21.3443L3.17356 21.2346C2.87192 21.0512 2.6106 20.8085 2.40538 20.5213Z" fill="#17704F"/>
<path d="M2.46022 21.4358C2.41749 21.4153 2.36916 21.4095 2.32282 21.4195C2.27648 21.4294 2.23474 21.4544 2.20416 21.4906C2.18366 21.5334 2.17793 21.5817 2.18786 21.628C2.19779 21.6744 2.22282 21.7161 2.25903 21.7467L3.2284 22.2039L3.28327 22.0942C2.89918 21.9113 2.62483 21.765 2.46022 21.4358Z" fill="#17704F"/>
<path d="M2.57008 22.3502C2.52735 22.3297 2.47902 22.324 2.43268 22.3339C2.38634 22.3439 2.3446 22.3689 2.31402 22.4051C2.29352 22.4479 2.28779 22.4962 2.29772 22.5425C2.30765 22.5889 2.33268 22.6306 2.36889 22.6612L3.33826 23.1184L3.39313 23.0087C3.00904 22.8258 2.73469 22.6795 2.57008 22.3502Z" fill="#17704F"/>
<path d="M2.66133 23.2647C2.6186 23.2442 2.57027 23.2385 2.52393 23.2484C2.47759 23.2584 2.43585 23.2834 2.40527 23.3196C2.40527 23.4293 2.40527 23.5208 2.51501 23.5208L3.53925 23.8683L3.59412 23.7586C3.24735 23.6731 2.92699 23.5034 2.66133 23.2647Z" fill="#17704F"/>
<path d="M2.77128 23.9781C2.66154 23.9232 2.57009 23.9781 2.57009 24.0878C2.51522 24.1427 2.57009 24.2341 2.62496 24.289L3.6492 24.6365L3.68577 24.5451C3.33827 24.3804 3.00905 24.2524 2.77128 23.9781Z" fill="#17704F"/>
<path d="M2.91776 24.6548C2.80802 24.5999 2.77145 24.6548 2.71658 24.7645C2.66171 24.8194 2.71658 24.9109 2.77145 24.9657L3.79568 25.3132L3.85055 25.2035C3.50488 25.0874 3.1872 24.9005 2.91776 24.6548Z" fill="#17704F"/>
<path d="M3.06416 25.2035C3.02143 25.183 2.9731 25.1773 2.92676 25.1872C2.88042 25.1971 2.83868 25.2222 2.80811 25.2584C2.80811 25.3681 2.80811 25.4595 2.86298 25.5144L4.03353 26.118L4.14327 26.0082C3.74089 25.7705 3.30193 25.551 3.06416 25.2035Z" fill="#17704F"/>
<path d="M4.39919 16.6621C4.50893 16.6072 4.50893 16.5158 4.50893 16.406C4.47835 16.3698 4.43662 16.3448 4.39028 16.3349C4.34393 16.3249 4.29561 16.3307 4.25287 16.3512L3.33838 16.9182L3.39325 17.0279C3.70418 16.7901 4.06997 16.7353 4.39919 16.6621Z" fill="#17704F"/>
<path d="M4.23446 17.4303C4.28933 17.3754 4.3442 17.284 4.28933 17.2291C4.23446 17.1194 4.14301 17.1194 4.08814 17.1742L3.22852 17.8327L3.28339 17.9424C3.55788 17.7024 3.88297 17.5273 4.23446 17.4303Z" fill="#17704F"/>
<path d="M4.17782 18.2899C4.28756 18.235 4.28756 18.1436 4.23269 18.0887C4.17782 17.979 4.08637 17.979 4.0315 18.0338L3.17188 18.6923L3.22674 18.802C3.50124 18.562 3.82633 18.3869 4.17782 18.2899Z" fill="#17704F"/>
<path d="M4.08802 19.1495C4.19776 19.0947 4.19776 19.0032 4.14289 18.8935C4.08802 18.8386 3.99657 18.8386 3.88683 18.8935L3.11865 19.6068L3.17352 19.7165C3.44502 19.4784 3.75402 19.2868 4.08802 19.1495Z" fill="#17704F"/>
<path d="M4.03347 20.0275C4.14321 19.9726 4.14321 19.8811 4.08834 19.8263C4.03347 19.7165 3.94202 19.7165 3.88715 19.7714L3.08057 20.5396L3.19031 20.6493C3.4327 20.395 3.71736 20.1846 4.03164 20.0275" fill="#17704F"/>
<path d="M4.08832 20.7773C4.19806 20.7225 4.19806 20.631 4.08832 20.5213C4.06159 20.4947 4.02543 20.4798 3.98773 20.4798C3.95003 20.4798 3.91386 20.4947 3.88713 20.5213L3.17383 21.326L3.28357 21.4358C3.48476 21.1248 3.83226 20.9419 4.08832 20.7773Z" fill="#17704F"/>
<path d="M4.14301 21.4906C4.19788 21.4358 4.19788 21.3443 4.14301 21.2346C4.11628 21.208 4.08011 21.1931 4.04242 21.1931C4.00472 21.1931 3.96855 21.208 3.94182 21.2346L3.22852 22.0393L3.28339 22.1491C3.55773 21.8382 3.77721 21.5821 4.14301 21.4906Z" fill="#17704F"/>
<path d="M4.17798 22.3137C4.20457 22.2869 4.21949 22.2508 4.21949 22.2131C4.21949 22.1754 4.20457 22.1392 4.17798 22.1125C4.12312 22.0028 4.03167 22.0576 3.92193 22.1125L3.31836 22.9721L3.4281 23.027C3.6358 22.7484 3.88938 22.5072 4.17798 22.3137Z" fill="#17704F"/>
<path d="M4.34404 23.027C4.39891 22.9173 4.39891 22.8258 4.34404 22.7709C4.2343 22.7161 4.14285 22.7161 4.08798 22.8258L3.521 23.7403L3.63074 23.7952C3.79534 23.4477 4.10627 23.2282 4.34404 23.027Z" fill="#17704F"/>
<path d="M4.74639 24.6548C4.80125 24.545 4.80125 24.4536 4.69152 24.3987C4.63665 24.3438 4.5452 24.3438 4.49033 24.4536L3.92334 25.3681L4.03308 25.4229C4.23427 25.0754 4.41717 24.8011 4.74639 24.6548Z" fill="#17704F"/>
<path d="M5.09209 25.4047C5.1053 25.3842 5.11436 25.3614 5.11875 25.3375C5.12314 25.3136 5.12278 25.289 5.11769 25.2653C5.11259 25.2415 5.10286 25.219 5.08906 25.1989C5.07525 25.1789 5.05763 25.1618 5.03722 25.1486C5.0168 25.1354 4.99398 25.1263 4.97007 25.1219C4.94615 25.1176 4.9216 25.1179 4.89783 25.123C4.87405 25.1281 4.85151 25.1378 4.83149 25.1516C4.81147 25.1654 4.79437 25.1831 4.78116 25.2035L4.26904 26.2643L4.37878 26.3192C4.59826 25.9351 4.74458 25.6058 5.09209 25.4047Z" fill="#17704F"/>
<path d="M4.54375 23.722C4.56425 23.6793 4.56998 23.6309 4.56005 23.5846C4.55012 23.5382 4.52509 23.4965 4.48888 23.4659C4.37914 23.4111 4.28769 23.4659 4.28769 23.5208L3.7207 24.5816L3.83044 24.6365C4.01122 24.2912 4.25287 23.9814 4.54375 23.722Z" fill="#17704F"/>
<path d="M8.60582 7.26108C5.55141 10.2606 3.62914 13.8637 3.06398 17.7778C2.497 21.7467 3.37491 25.7522 5.55141 29.3553C5.60628 29.465 5.69773 29.465 5.80747 29.4101C5.91721 29.3553 5.91721 29.2638 5.86234 29.209C3.72242 25.6607 2.8628 21.7467 3.42978 17.8326C4.03617 13.8954 5.92657 10.2689 8.80701 7.51714C8.91675 7.46227 8.91675 7.37082 8.80701 7.26108C8.77655 7.24306 8.74181 7.23355 8.70642 7.23355C8.67102 7.23355 8.63628 7.24306 8.60582 7.26108Z" fill="#17704F"/>
<path d="M32.474 9.96801C32.4357 9.96622 32.3995 9.95024 32.3725 9.92317C32.3454 9.89611 32.3294 9.85992 32.3276 9.82169C32.3276 9.71195 32.3825 9.6205 32.474 9.67537L33.3336 9.78511V9.93143C33.0044 9.8034 32.7483 9.91314 32.474 9.96801Z" fill="#17704F"/>
<path d="M32.8397 10.4618C32.8014 10.46 32.7653 10.4441 32.7382 10.417C32.7111 10.3899 32.6951 10.3537 32.6934 10.3155C32.6934 10.2058 32.7482 10.1692 32.8397 10.1692L33.6993 10.3155V10.4618C33.3701 10.3338 33.114 10.4252 32.8397 10.4618Z" fill="#17704F"/>
<path d="M33.1507 10.9739C33.1125 10.9722 33.0763 10.9562 33.0492 10.9291C33.0222 10.902 33.0062 10.8659 33.0044 10.8276C33.0044 10.7179 33.1141 10.6813 33.2056 10.6813L34.0652 10.8825L34.0103 10.9922C33.6628 10.8459 33.4068 10.9374 33.1507 10.9739Z" fill="#17704F"/>
<path d="M33.4984 11.5409C33.3886 11.5409 33.3521 11.4861 33.3521 11.3946C33.4069 11.2849 33.4618 11.2483 33.5532 11.2483L34.4129 11.5043L34.358 11.6141C34.0819 11.5189 33.7865 11.4938 33.4984 11.5409Z" fill="#17704F"/>
<path d="M33.8076 12.0896C33.7664 12.0773 33.7318 12.0493 33.7113 12.0116C33.6907 11.9739 33.6859 11.9297 33.6978 11.8884C33.6978 11.8336 33.8076 11.7787 33.899 11.7787L34.7038 12.1262L34.6489 12.2359C34.3823 12.1271 34.0953 12.0772 33.8076 12.0896Z" fill="#17704F"/>
<path d="M34.2114 12.7481C34.1565 12.7481 34.0651 12.6383 34.1017 12.6017C34.1017 12.492 34.2114 12.4554 34.3029 12.4554L35.1076 12.8029L35.0527 12.9127C34.79 12.7898 34.5011 12.7332 34.2114 12.7481Z" fill="#17704F"/>
<path d="M34.4677 13.3699C34.358 13.3699 34.3214 13.2602 34.358 13.1687C34.358 13.1139 34.4677 13.059 34.5591 13.059L35.3639 13.3699L35.309 13.5162C35.0477 13.39 34.7563 13.3393 34.4677 13.3699Z" fill="#17704F"/>
<path d="M34.6689 13.9735C34.5591 13.9186 34.5225 13.8637 34.5591 13.7723C34.5591 13.6626 34.6689 13.626 34.7603 13.6626L35.5651 13.9735L35.5102 14.0832C35.2438 13.9753 34.9541 13.9375 34.6689 13.9735Z" fill="#17704F"/>
<path d="M34.8699 14.5405C34.8337 14.5099 34.8086 14.4682 34.7987 14.4218C34.7888 14.3755 34.7945 14.3272 34.815 14.2844C34.815 14.2296 34.9247 14.1747 35.0162 14.1747L35.7844 14.5771L35.7295 14.6868C35.4622 14.5589 35.1644 14.5083 34.8699 14.5405Z" fill="#17704F"/>
<path d="M35.0713 15.1989C35.0164 15.1989 34.9615 15.0892 35.0164 14.9977C35.0164 14.9429 35.1261 14.888 35.2176 14.9429L35.9857 15.3452L35.9309 15.455C35.6649 15.3117 35.3723 15.2245 35.0713 15.1989Z" fill="#17704F"/>
<path d="M35.3638 15.9671C35.2541 15.9671 35.1809 15.8025 35.2175 15.711C35.2413 15.6795 35.2716 15.6534 35.3063 15.6345C35.341 15.6155 35.3793 15.6042 35.4187 15.6013L36.1869 16.0585L36.132 16.1683C35.889 16.0589 35.6293 15.9909 35.3638 15.9671Z" fill="#17704F"/>
<path d="M32.0169 9.45588C31.979 9.45331 31.9432 9.43707 31.9163 9.41017C31.8894 9.38326 31.8732 9.34752 31.8706 9.30956C31.8706 9.19982 31.9803 9.16324 32.0718 9.16324L32.9314 9.30956V9.4193C32.5839 9.30956 32.2913 9.40101 32.0169 9.45588Z" fill="#17704F"/>
<path d="M31.6126 8.94376C31.5747 8.94119 31.5389 8.92495 31.512 8.89805C31.4851 8.87115 31.4689 8.8354 31.4663 8.79744C31.4663 8.6877 31.576 8.65112 31.6675 8.65112L32.5271 8.79744V8.90718C32.2248 8.83474 31.9082 8.8474 31.6126 8.94376Z" fill="#17704F"/>
<path d="M31.1573 8.48652C31.0476 8.48652 30.9562 8.37678 31.011 8.28533C31.0136 8.24737 31.0298 8.21162 31.0567 8.18472C31.0836 8.15782 31.1194 8.14158 31.1573 8.13901L32.017 8.28533V8.39507C31.7273 8.35076 31.4312 8.38227 31.1573 8.48652Z" fill="#17704F"/>
<path d="M30.8099 7.93781C30.7002 7.88294 30.6636 7.82807 30.6636 7.73662C30.6636 7.64517 30.7733 7.5903 30.8648 7.5903L31.6695 7.84636V7.99268C31.3403 7.80978 31.0842 7.90123 30.8099 7.93781Z" fill="#17704F"/>
<path d="M31.6327 7.31595C31.6144 7.2245 31.6876 7.15134 31.7973 7.16963C31.8887 7.15134 31.9619 7.2245 31.9436 7.33424L31.8339 8.19386L31.7241 8.17557C31.7684 7.88594 31.7369 7.58978 31.6327 7.31595Z" fill="#17704F"/>
<path d="M32.3827 7.57202C32.3827 7.51715 32.4924 7.46228 32.5839 7.46228C32.6387 7.46228 32.6936 7.57202 32.6936 7.66347L32.3827 8.46822H32.2729C32.3811 8.18266 32.4187 7.87523 32.3827 7.57202Z" fill="#17704F"/>
<path d="M32.8399 8.02928C32.8399 7.91954 32.9496 7.88296 33.041 7.91954C33.1508 7.91954 33.1508 8.02928 33.1508 8.12073L32.7484 9.09009H32.6387C32.8033 8.74259 32.8033 8.34021 32.8399 8.02928Z" fill="#17704F"/>
<path d="M33.2421 8.48653C33.297 8.37679 33.3519 8.34021 33.4433 8.34021C33.553 8.39508 33.5896 8.44995 33.5896 8.5414L33.1873 9.56563L33.0757 9.51076C33.2952 9.14497 33.2403 8.79746 33.2403 8.48653" fill="#17704F"/>
<path d="M33.6447 8.88888C33.6447 8.77914 33.7545 8.77914 33.8459 8.77914C33.8775 8.80295 33.9036 8.83321 33.9225 8.8679C33.9414 8.9026 33.9527 8.94092 33.9557 8.98033L33.4984 9.9497H33.3887C33.5676 9.62545 33.656 9.25905 33.6447 8.88888Z" fill="#17704F"/>
<path d="M34.1018 9.45587C34.1256 9.42433 34.1558 9.39823 34.1905 9.3793C34.2252 9.36038 34.2635 9.34907 34.303 9.34613C34.3271 9.3556 34.3491 9.36976 34.3677 9.3878C34.3863 9.40584 34.4011 9.4274 34.4113 9.45122C34.4216 9.47504 34.4269 9.50065 34.4272 9.52657C34.4274 9.55249 34.4225 9.57819 34.4127 9.60219C34.3578 9.65706 34.3029 9.71193 34.2664 9.71193L33.9554 10.5716L33.8457 10.5167L34.1566 9.65706C34.1018 9.60219 34.0469 9.54732 34.1018 9.45587Z" fill="#17704F"/>
<path d="M34.5044 10.0594C34.5044 9.94971 34.6142 9.94971 34.7056 9.94971C34.7628 10.0033 34.8013 10.0738 34.8154 10.1509L34.3563 11.1203L34.21 11.0654C34.4008 10.7646 34.5023 10.4157 34.5026 10.0594" fill="#17704F"/>
<path d="M34.8702 10.5716C34.8702 10.5167 34.9799 10.4618 35.0714 10.5167C35.1263 10.5167 35.1811 10.6264 35.1263 10.7179L34.6141 11.6324L34.5044 11.5775C34.6927 11.2702 34.8171 10.928 34.8702 10.5716Z" fill="#17704F"/>
<path d="M35.2176 11.23C35.2267 11.2088 35.24 11.1896 35.2566 11.1736C35.2733 11.1576 35.293 11.1452 35.3146 11.1369C35.3362 11.1287 35.3592 11.125 35.3823 11.1259C35.4053 11.1267 35.428 11.1323 35.4489 11.1421C35.4698 11.1519 35.4885 11.1659 35.5039 11.1831C35.5192 11.2003 35.531 11.2204 35.5384 11.2423C35.5459 11.2641 35.5488 11.2873 35.5471 11.3103C35.5454 11.3333 35.5391 11.3558 35.5286 11.3763L35.0164 12.2908L34.8701 12.2359C35.0896 11.8884 35.2359 11.5775 35.2176 11.23Z" fill="#17704F"/>
<path d="M35.5285 11.6872C35.5834 11.6324 35.6749 11.5775 35.7297 11.6324C35.8395 11.6872 35.8395 11.7787 35.7846 11.8884L35.181 12.7481L35.0713 12.6932C35.2969 12.3962 35.4532 12.0525 35.5285 11.6872Z" fill="#17704F"/>
<path d="M35.7847 12.2908C35.8396 12.236 35.931 12.1811 35.9859 12.236C36.023 12.2537 36.0536 12.2827 36.0733 12.3188C36.093 12.3549 36.1008 12.3963 36.0956 12.4371L35.4921 13.3516L35.3823 13.2968C35.5798 12.9904 35.7164 12.6489 35.7847 12.2908Z" fill="#17704F"/>
<path d="M36.0408 12.7481C36.0957 12.6932 36.1871 12.6383 36.242 12.6932C36.3517 12.7481 36.3517 12.8395 36.2969 12.9493L35.6366 13.754L35.5269 13.6991C35.7704 13.4271 35.946 13.1012 36.039 12.7481" fill="#17704F"/>
<path d="M36.2965 13.2602C36.3513 13.1505 36.4428 13.1505 36.4977 13.2053C36.6074 13.2602 36.6074 13.3516 36.5525 13.4065L35.8392 14.2113L35.7295 14.1564C35.971 13.8943 36.1631 13.5907 36.2965 13.2602Z" fill="#17704F"/>
<path d="M36.4428 13.7723C36.4695 13.7457 36.5057 13.7308 36.5434 13.7308C36.5811 13.7308 36.6172 13.7457 36.644 13.7723C36.7537 13.8272 36.7537 13.9186 36.6988 13.9735L36.0404 14.7783L35.9307 14.7234C36.1774 14.4536 36.3533 14.1268 36.4428 13.7723Z" fill="#17704F"/>
<path d="M36.6988 14.4856C36.7537 14.3759 36.8451 14.3759 36.9549 14.4307C37.0098 14.4856 37.0098 14.577 36.9549 14.6868L36.2416 15.455L36.1318 15.3452C36.3804 15.1027 36.5737 14.8095 36.6988 14.4856Z" fill="#17704F"/>
<path d="M36.9002 15.0892C36.9269 15.0626 36.9631 15.0477 37.0008 15.0477C37.0385 15.0477 37.0746 15.0626 37.1014 15.0892C37.1562 15.144 37.2111 15.2355 37.1562 15.2904L36.3881 16.0951L36.2783 15.9854C36.5495 15.7365 36.762 15.4304 36.9002 15.0892Z" fill="#17704F"/>
<path d="M37.0467 15.9122C37.0617 15.8925 37.081 15.8765 37.1033 15.8655C37.1255 15.8545 37.1499 15.8488 37.1747 15.8488C37.1995 15.8488 37.2239 15.8545 37.2461 15.8655C37.2683 15.8765 37.2877 15.8925 37.3027 15.9122C37.3293 15.939 37.3442 15.9751 37.3442 16.0128C37.3442 16.0505 37.3293 16.0867 37.3027 16.1134L36.5345 16.8816L36.4248 16.7719C36.7357 16.4975 36.9735 16.2414 37.0467 15.9122Z" fill="#17704F"/>
<path d="M37.1565 16.7718C37.1715 16.7521 37.1909 16.7362 37.2131 16.7252C37.2353 16.7142 37.2598 16.7084 37.2846 16.7084C37.3093 16.7084 37.3338 16.7142 37.356 16.7252C37.3782 16.7362 37.3976 16.7521 37.4126 16.7718C37.4392 16.7986 37.4541 16.8347 37.4541 16.8724C37.4541 16.9101 37.4392 16.9463 37.4126 16.973L36.6444 17.7412L36.5347 17.6315C36.8023 17.3939 37.0146 17.1004 37.1565 16.7718Z" fill="#17704F"/>
<path d="M37.3025 17.4851C37.3175 17.4654 37.3369 17.4494 37.3591 17.4384C37.3813 17.4274 37.4058 17.4217 37.4305 17.4217C37.4553 17.4217 37.4798 17.4274 37.502 17.4384C37.5242 17.4494 37.5436 17.4654 37.5586 17.4851C37.5852 17.5119 37.6001 17.548 37.6001 17.5857C37.6001 17.6234 37.5852 17.6596 37.5586 17.6863L36.7904 18.4545L36.6807 18.3448C36.9483 18.1071 37.1606 17.8137 37.3025 17.4851Z" fill="#17704F"/>
<path d="M37.3391 18.2533C37.3542 18.2336 37.3735 18.2176 37.3957 18.2066C37.4179 18.1956 37.4424 18.1899 37.4672 18.1899C37.492 18.1899 37.5164 18.1956 37.5386 18.2066C37.5608 18.2176 37.5802 18.2336 37.5952 18.2533C37.6218 18.2801 37.6367 18.3162 37.6367 18.3539C37.6367 18.3916 37.6218 18.4278 37.5952 18.4545L36.827 19.2227L36.7173 19.1129C36.9849 18.8753 37.1972 18.5819 37.3391 18.2533Z" fill="#17704F"/>
<path d="M37.4856 19.2593C37.5006 19.2396 37.52 19.2236 37.5422 19.2126C37.5644 19.2016 37.5889 19.1959 37.6137 19.1959C37.6384 19.1959 37.6629 19.2016 37.6851 19.2126C37.7073 19.2236 37.7267 19.2396 37.7417 19.2593C37.7683 19.286 37.7832 19.3222 37.7832 19.3599C37.7832 19.3976 37.7683 19.4337 37.7417 19.4605L36.9735 20.2286L36.8638 20.1189C37.1314 19.8813 37.3437 19.5878 37.4856 19.2593Z" fill="#17704F"/>
<path d="M37.4656 20.5213C37.5754 20.4664 37.6668 20.4664 37.7217 20.5213C37.7422 20.564 37.7479 20.6123 37.738 20.6587C37.7281 20.705 37.703 20.7467 37.6668 20.7773L36.7523 21.3443L36.6426 21.2346C36.9605 21.0523 37.24 20.81 37.4656 20.5213Z" fill="#17704F"/>
<path d="M37.4124 21.4358C37.4536 21.4091 37.5038 21.3999 37.5518 21.4102C37.5998 21.4205 37.6418 21.4494 37.6685 21.4906C37.6951 21.5319 37.7043 21.582 37.6941 21.63C37.6838 21.6781 37.6548 21.72 37.6136 21.7467L36.6442 22.204L36.5894 22.0942C36.9552 21.9113 37.2478 21.765 37.4124 21.4358Z" fill="#17704F"/>
<path d="M37.3027 22.3502C37.3455 22.3297 37.3938 22.324 37.4401 22.3339C37.4865 22.3439 37.5282 22.3689 37.5588 22.4051C37.5588 22.5149 37.5588 22.6063 37.5039 22.6612L36.5345 23.1184L36.4248 23.0087C36.8272 22.8258 37.1381 22.6795 37.3027 22.3502Z" fill="#17704F"/>
<path d="M37.2111 23.2647C37.2538 23.2442 37.3022 23.2385 37.3485 23.2484C37.3949 23.2584 37.4366 23.2834 37.4672 23.3196C37.4672 23.4293 37.4672 23.5208 37.3574 23.5208L36.3332 23.8683L36.2783 23.7586C36.6251 23.6731 36.9454 23.5034 37.2111 23.2647Z" fill="#17704F"/>
<path d="M37.0998 23.9781C37.2095 23.9232 37.301 23.9781 37.301 24.0878C37.3558 24.1427 37.301 24.2341 37.2461 24.289L36.2219 24.6365L36.167 24.5268C36.5328 24.3804 36.862 24.2524 37.0998 23.9781Z" fill="#17704F"/>
<path d="M36.9552 24.6548C37.0101 24.5999 37.1016 24.6548 37.1564 24.7645C37.2113 24.8194 37.1564 24.9109 37.1016 24.9657L36.0773 25.3132L36.0225 25.2035C36.3681 25.0874 36.6858 24.9005 36.9552 24.6548Z" fill="#17704F"/>
<path d="M36.7905 25.2035C36.9003 25.1486 36.9917 25.2035 36.9917 25.2584C37.0466 25.3681 37.0466 25.4595 36.9917 25.5144L35.8212 26.118L35.7114 26.0082C36.1321 25.7705 36.5528 25.551 36.7905 25.2035Z" fill="#17704F"/>
<path d="M35.4735 16.6621C35.3638 16.6072 35.3638 16.5158 35.3638 16.406C35.3943 16.3698 35.4361 16.3448 35.4824 16.3349C35.5288 16.3249 35.5771 16.3307 35.6198 16.3512L36.5343 16.9182L36.4795 17.0279C36.1685 16.7901 35.8027 16.7353 35.4735 16.6621Z" fill="#17704F"/>
<path d="M35.6362 17.4303C35.5813 17.3754 35.5265 17.284 35.5813 17.2291C35.6362 17.1194 35.7276 17.1194 35.7825 17.1742L36.6421 17.8327L36.5873 17.9424C36.3128 17.7024 35.9877 17.5273 35.6362 17.4303Z" fill="#17704F"/>
<path d="M35.6749 18.2899C35.5652 18.235 35.5652 18.1436 35.62 18.0887C35.6749 17.979 35.7663 17.979 35.8212 18.0338L36.6808 18.6923L36.626 18.802C36.3424 18.5754 36.0202 18.4019 35.6749 18.2899Z" fill="#17704F"/>
<path d="M35.7847 20.0275C35.7581 20.0007 35.7432 19.9646 35.7432 19.9269C35.7432 19.8892 35.7581 19.853 35.7847 19.8263C35.8395 19.7165 35.931 19.7165 35.9859 19.7714L36.7906 20.5396L36.6809 20.6493C36.432 20.3781 36.1258 20.1657 35.7847 20.0275Z" fill="#17704F"/>
<path d="M35.7847 19.1678C35.7581 19.1411 35.7432 19.1049 35.7432 19.0672C35.7432 19.0295 35.7581 18.9933 35.7847 18.9666C35.8395 18.8569 35.931 18.8569 35.9859 18.9117L36.7906 19.6799L36.6809 19.7897C36.432 19.5184 36.1258 19.306 35.7847 19.1678Z" fill="#17704F"/>
<path d="M35.7845 20.7773C35.6747 20.7225 35.6747 20.631 35.7845 20.5213C35.8112 20.4947 35.8473 20.4798 35.885 20.4798C35.9227 20.4798 35.9589 20.4947 35.9856 20.5213L36.6989 21.326L36.5892 21.4358C36.3669 21.1655 36.0934 20.9418 35.7845 20.7773Z" fill="#17704F"/>
<path d="M35.7296 21.4906C35.6748 21.4358 35.6748 21.3443 35.7296 21.2346C35.7564 21.208 35.7925 21.1931 35.8302 21.1931C35.8679 21.1931 35.9041 21.208 35.9308 21.2346L36.6441 22.0393L36.5893 22.1491C36.3149 21.8382 36.0771 21.5821 35.7296 21.4906Z" fill="#17704F"/>
<path d="M35.6748 22.3137C35.6482 22.2869 35.6333 22.2508 35.6333 22.2131C35.6333 22.1754 35.6482 22.1392 35.6748 22.1125C35.7297 22.0028 35.8211 22.0576 35.876 22.1125L36.5344 22.9721L36.4247 23.027C36.2265 22.7401 35.9712 22.4973 35.6748 22.3137Z" fill="#17704F"/>
<path d="M35.5285 23.027C35.4736 22.9173 35.4736 22.8258 35.5285 22.7709C35.6382 22.7161 35.7296 22.7161 35.7845 22.8258L36.3515 23.7403L36.2418 23.7952C36.0577 23.494 35.8152 23.2328 35.5285 23.027Z" fill="#17704F"/>
<path d="M35.1259 24.6548C35.071 24.545 35.071 24.4536 35.1808 24.3987C35.2356 24.3438 35.3271 24.3438 35.3819 24.4536L35.9489 25.3681L35.8392 25.4229C35.6551 25.1218 35.4126 24.8606 35.1259 24.6548Z" fill="#17704F"/>
<path d="M34.7602 25.4047C34.747 25.3842 34.7379 25.3614 34.7335 25.3375C34.7291 25.3136 34.7295 25.289 34.7346 25.2653C34.7397 25.2415 34.7494 25.219 34.7632 25.1989C34.777 25.1789 34.7946 25.1618 34.815 25.1486C34.8355 25.1354 34.8583 25.1263 34.8822 25.1219C34.9061 25.1176 34.9307 25.1179 34.9544 25.123C34.9782 25.1281 35.0008 25.1378 35.0208 25.1516C35.0408 25.1654 35.0579 25.1831 35.0711 25.2035L35.5832 26.2643L35.4735 26.3192C35.2723 25.9351 35.1077 25.6058 34.7602 25.4047Z" fill="#17704F"/>
<path d="M35.3271 23.722C35.2722 23.6123 35.2722 23.5208 35.3819 23.4659C35.4368 23.4111 35.5282 23.4659 35.5831 23.5208L36.1501 24.5816L36.0404 24.6365C35.8535 24.2951 35.6126 23.9863 35.3271 23.722Z" fill="#17704F"/>
<path d="M31.2668 7.26108C34.3212 10.2606 36.2416 13.8637 36.8086 17.7778C37.3756 21.7467 36.4977 25.7522 34.3212 29.3553C34.3094 29.3772 34.2929 29.3963 34.273 29.4113C34.2531 29.4262 34.2302 29.4367 34.2058 29.4419C34.1815 29.4471 34.1563 29.447 34.132 29.4415C34.1077 29.436 34.0849 29.4253 34.0651 29.4101C33.9554 29.3553 33.9554 29.2638 34.0103 29.209C36.1502 25.6607 37.0098 21.7467 36.4428 17.8326C35.8359 13.8952 33.9449 10.2687 31.0637 7.51714C30.954 7.46227 30.954 7.37082 31.0637 7.26108C31.0942 7.24306 31.129 7.23355 31.1643 7.23355C31.1997 7.23355 31.2345 7.24306 31.2649 7.26108" fill="#17704F"/>
<path d="M19.927 36.3054C19.6774 36.3054 19.4334 36.2314 19.2259 36.0928C19.0184 35.9541 18.8566 35.757 18.7611 35.5264C18.6656 35.2958 18.6406 35.042 18.6893 34.7972C18.738 34.5524 18.8582 34.3276 19.0347 34.1511C19.2112 33.9746 19.436 33.8544 19.6808 33.8057C19.9256 33.757 20.1794 33.782 20.41 33.8775C20.6406 33.973 20.8377 34.1348 20.9764 34.3423C21.115 34.5498 21.189 34.7938 21.189 35.0434C21.1918 35.2099 21.161 35.3752 21.0985 35.5296C21.0361 35.6839 20.9432 35.8241 20.8255 35.9419C20.7077 36.0596 20.5675 36.1525 20.4132 36.2149C20.2588 36.2774 20.0935 36.3082 19.927 36.3054ZM19.927 33.946C19.71 33.946 19.4978 34.0104 19.3174 34.131C19.1369 34.2516 18.9962 34.423 18.9132 34.6235C18.8301 34.824 18.8084 35.0447 18.8507 35.2575C18.8931 35.4704 18.9976 35.6659 19.1511 35.8194C19.3045 35.9729 19.5001 36.0774 19.713 36.1197C19.9258 36.1621 20.1465 36.1404 20.347 36.0573C20.5475 35.9742 20.7189 35.8336 20.8395 35.6531C20.9601 35.4727 21.0244 35.2605 21.0244 35.0434C21.0244 34.7524 20.9088 34.4733 20.703 34.2675C20.4972 34.0617 20.2181 33.946 19.927 33.946Z" fill="#9E2140"/>
<path d="M23.6399 36.3054C23.3903 36.3054 23.1463 36.2314 22.9388 36.0928C22.7313 35.9541 22.5695 35.757 22.474 35.5264C22.3785 35.2958 22.3535 35.042 22.4022 34.7972C22.4509 34.5524 22.5711 34.3276 22.7476 34.1511C22.9241 33.9746 23.1489 33.8544 23.3937 33.8057C23.6385 33.757 23.8923 33.782 24.1229 33.8775C24.3535 33.973 24.5506 34.1348 24.6893 34.3423C24.8279 34.5498 24.9019 34.7938 24.9019 35.0434C24.9015 35.378 24.7683 35.6987 24.5318 35.9353C24.2952 36.1718 23.9745 36.305 23.6399 36.3054ZM23.6399 33.946C23.4229 33.946 23.2107 34.0104 23.0303 34.131C22.8498 34.2516 22.7091 34.423 22.6261 34.6235C22.543 34.824 22.5213 35.0447 22.5636 35.2575C22.606 35.4704 22.7105 35.6659 22.864 35.8194C23.0174 35.9729 23.213 36.0774 23.4258 36.1197C23.6387 36.1621 23.8594 36.1404 24.0599 36.0573C24.2604 35.9742 24.4318 35.8336 24.5524 35.6531C24.673 35.4727 24.7373 35.2605 24.7373 35.0434C24.7335 34.7536 24.6167 34.4766 24.4117 34.2717C24.2067 34.0667 23.9298 33.9498 23.6399 33.946Z" fill="#9E2140"/>
<path d="M21.7928 36.3054C21.5432 36.3054 21.2992 36.2314 21.0916 36.0928C20.8841 35.9541 20.7223 35.757 20.6268 35.5264C20.5313 35.2958 20.5063 35.042 20.555 34.7972C20.6037 34.5524 20.7239 34.3276 20.9004 34.1511C21.0769 33.9746 21.3018 33.8544 21.5466 33.8057C21.7914 33.757 22.0451 33.782 22.2757 33.8775C22.5063 33.973 22.7034 34.1348 22.8421 34.3423C22.9808 34.5498 23.0548 34.7938 23.0548 35.0434C23.0543 35.378 22.9212 35.6987 22.6846 35.9353C22.448 36.1718 22.1273 36.305 21.7928 36.3054ZM21.7928 33.946C21.5757 33.946 21.3636 34.0104 21.1831 34.131C21.0026 34.2516 20.862 34.423 20.7789 34.6235C20.6958 34.824 20.6741 35.0447 20.7165 35.2575C20.7588 35.4704 20.8633 35.6659 21.0168 35.8194C21.1703 35.9729 21.3658 36.0774 21.5787 36.1197C21.7915 36.1621 22.0122 36.1404 22.2127 36.0573C22.4132 35.9742 22.5846 35.8336 22.7052 35.6531C22.8258 35.4727 22.8902 35.2605 22.8902 35.0434C22.8832 34.7546 22.7653 34.4795 22.561 34.2752C22.3567 34.0709 22.0816 33.953 21.7928 33.946Z" fill="#9E2140"/>
<path d="M18.0779 36.3054C17.8283 36.3054 17.5843 36.2314 17.3768 36.0928C17.1693 35.9541 17.0075 35.757 16.912 35.5264C16.8165 35.2958 16.7915 35.042 16.8402 34.7972C16.8889 34.5524 17.0091 34.3276 17.1856 34.1511C17.362 33.9746 17.5869 33.8544 17.8317 33.8057C18.0765 33.757 18.3303 33.782 18.5609 33.8775C18.7915 33.973 18.9886 34.1348 19.1272 34.3423C19.2659 34.5498 19.3399 34.7938 19.3399 35.0434C19.3426 35.2099 19.3119 35.3752 19.2494 35.5296C19.1869 35.6839 19.0941 35.8241 18.9764 35.9419C18.8586 36.0596 18.7184 36.1525 18.5641 36.2149C18.4097 36.2774 18.2444 36.3082 18.0779 36.3054ZM18.0779 33.946C17.8609 33.946 17.6487 34.0104 17.4682 34.131C17.2878 34.2516 17.1471 34.423 17.0641 34.6235C16.981 34.824 16.9593 35.0447 17.0016 35.2575C17.044 35.4704 17.1485 35.6659 17.3019 35.8194C17.4554 35.9729 17.651 36.0774 17.8638 36.1197C18.0767 36.1621 18.2974 36.1404 18.4979 36.0573C18.6984 35.9742 18.8698 35.8336 18.9904 35.6531C19.111 35.4727 19.1753 35.2605 19.1753 35.0434C19.1753 34.7524 19.0597 34.4733 18.8539 34.2675C18.6481 34.0617 18.369 33.946 18.0779 33.946Z" fill="#9E2140"/>
<path d="M16.2327 36.3054C15.9831 36.3054 15.7391 36.2314 15.5316 36.0928C15.324 35.9541 15.1623 35.757 15.0668 35.5264C14.9713 35.2958 14.9463 35.042 14.995 34.7972C15.0436 34.5524 15.1638 34.3276 15.3403 34.1511C15.5168 33.9746 15.7417 33.8544 15.9865 33.8057C16.2313 33.757 16.4851 33.782 16.7157 33.8775C16.9463 33.973 17.1434 34.1348 17.282 34.3423C17.4207 34.5498 17.4947 34.7938 17.4947 35.0434C17.4942 35.378 17.3611 35.6987 17.1245 35.9353C16.888 36.1718 16.5673 36.305 16.2327 36.3054ZM16.2327 33.946C16.0157 33.946 15.8035 34.0104 15.623 34.131C15.4426 34.2516 15.3019 34.423 15.2188 34.6235C15.1358 34.824 15.1141 35.0447 15.1564 35.2575C15.1987 35.4704 15.3033 35.6659 15.4567 35.8194C15.6102 35.9729 15.8057 36.0774 16.0186 36.1197C16.2315 36.1621 16.4521 36.1404 16.6527 36.0573C16.8532 35.9742 17.0246 35.8336 17.1452 35.6531C17.2657 35.4727 17.3301 35.2605 17.3301 35.0434C17.3301 34.7524 17.2145 34.4733 17.0087 34.2675C16.8029 34.0617 16.5238 33.946 16.2327 33.946Z" fill="#9E2140"/>
<path d="M14.3855 36.3054C14.1359 36.3054 13.8919 36.2314 13.6844 36.0928C13.4769 35.9541 13.3151 35.757 13.2196 35.5264C13.1241 35.2958 13.0991 35.042 13.1478 34.7972C13.1965 34.5524 13.3167 34.3276 13.4932 34.1511C13.6697 33.9746 13.8945 33.8544 14.1393 33.8057C14.3841 33.757 14.6379 33.782 14.8685 33.8775C15.0991 33.973 15.2962 34.1348 15.4349 34.3423C15.5735 34.5498 15.6475 34.7938 15.6475 35.0434C15.6471 35.378 15.5139 35.6987 15.2774 35.9353C15.0408 36.1718 14.7201 36.305 14.3855 36.3054ZM14.3855 33.946C14.1685 33.946 13.9563 34.0104 13.7759 34.131C13.5954 34.2516 13.4547 34.423 13.3717 34.6235C13.2886 34.824 13.2669 35.0447 13.3092 35.2575C13.3516 35.4704 13.4561 35.6659 13.6096 35.8194C13.763 35.9729 13.9586 36.0774 14.1714 36.1197C14.3843 36.1621 14.605 36.1404 14.8055 36.0573C15.006 35.9742 15.1774 35.8336 15.298 35.6531C15.4186 35.4727 15.4829 35.2605 15.4829 35.0434C15.4829 34.7524 15.3673 34.4733 15.1615 34.2675C14.9557 34.0617 14.6766 33.946 14.3855 33.946Z" fill="#9E2140"/>
<path d="M25.4871 36.3054C25.2375 36.3054 24.9935 36.2314 24.786 36.0928C24.5784 35.9541 24.4167 35.757 24.3212 35.5264C24.2256 35.2958 24.2007 35.042 24.2493 34.7972C24.298 34.5524 24.4182 34.3276 24.5947 34.1511C24.7712 33.9746 24.9961 33.8544 25.2409 33.8057C25.4857 33.757 25.7394 33.782 25.97 33.8775C26.2006 33.973 26.3977 34.1348 26.5364 34.3423C26.6751 34.5498 26.7491 34.7938 26.7491 35.0434C26.7486 35.378 26.6155 35.6987 26.3789 35.9353C26.1424 36.1718 25.8217 36.305 25.4871 36.3054ZM25.4871 33.946C25.2701 33.946 25.0579 34.0104 24.8774 34.131C24.697 34.2516 24.5563 34.423 24.4732 34.6235C24.3902 34.824 24.3684 35.0447 24.4108 35.2575C24.4531 35.4704 24.5577 35.6659 24.7111 35.8194C24.8646 35.9729 25.0601 36.0774 25.273 36.1197C25.4859 36.1621 25.7065 36.1404 25.9071 36.0573C26.1076 35.9742 26.279 35.8336 26.3996 35.6531C26.5201 35.4727 26.5845 35.2605 26.5845 35.0434C26.5807 34.7536 26.4639 34.4766 26.2589 34.2717C26.0539 34.0667 25.777 33.9498 25.4871 33.946Z" fill="#9E2140"/>
<path d="M13.5988 33.2876H14.5499C11.477 32.0402 8.93334 29.7634 7.35444 26.8469C5.77554 23.9305 5.25964 20.5559 5.89508 17.3009C6.53051 14.0459 8.27775 11.1131 10.8376 9.00459C13.3975 6.8961 16.6107 5.74311 19.9271 5.74305C23.7188 5.74837 27.3537 7.25696 30.0348 9.93809C32.7159 12.6192 34.2245 16.2541 34.2298 20.0457V20.064C34.232 21.9427 33.8632 23.8032 33.1444 25.5389C32.4256 27.2746 31.3712 28.8513 30.0415 30.1783C28.6997 31.5335 27.0935 32.5981 25.3227 33.3059H26.2737C28.7708 32.1043 30.8781 30.2226 32.3534 27.8769C33.8288 25.5312 34.6123 22.8168 34.6139 20.0457V20.0275C34.611 16.1332 33.0627 12.3992 30.3091 9.64554C27.5554 6.89186 23.8214 5.34357 19.9271 5.34067C16.5952 5.34114 13.3623 6.4743 10.7592 8.55417C8.15611 10.634 6.33738 13.537 5.60152 16.7867C4.86566 20.0364 5.25639 23.4398 6.70958 26.4381C8.16277 29.4365 10.5921 31.8518 13.5988 33.2876Z" fill="#C3A466"/>
<path d="M34.7218 27.5446L34.0268 25.4595C32.7655 28.8074 30.3448 31.5916 27.2047 33.3059V36.781H26.8389V37.4028C29.5421 36.3384 31.9571 34.6531 33.8889 32.4831C35.8206 30.3131 37.2149 27.7192 37.9591 24.9108L34.7218 27.5446Z" fill="#C3A466"/>
<path d="M12.648 36.781V33.3059H12.6846C9.55702 31.6415 7.03302 28.9346 5.80759 25.6058L5.14916 27.5446L1.89355 24.9108C2.63497 27.7205 4.02824 30.3158 5.96033 32.4862C7.89243 34.6566 10.3089 36.341 13.0138 37.4028V36.781H12.648Z" fill="#C3A466"/>
<path d="M27.2799 36.8358H12.5913V33.2327H27.2781L27.2799 36.8358ZM12.7212 36.7078H27.1519V33.3608H12.7212V36.7078Z" fill="#C3A466"/>
<path d="M26.4016 22.2954C26.4046 22.1732 26.3985 22.0509 26.3833 21.9296L26.4016 22.2954Z" fill="white"/>
<path d="M27.2981 25.3681C27.2249 25.5144 27.5176 25.8436 27.737 25.8985C27.9638 25.9014 28.1842 25.8236 28.3589 25.679C28.5413 25.3954 28.6657 25.0783 28.7247 24.7462H27.2981C27.2798 24.9474 27.4078 25.1486 27.2981 25.3681Z" fill="#F4A51F"/>
<path d="M29.4381 23.0087C29.3832 22.6795 29.4015 22.3503 29.2003 22.0393C29.1272 21.9296 28.9809 21.9479 28.9809 21.9845C28.9443 22.2405 28.6699 22.3503 28.5785 22.5515C28.517 22.7121 28.4131 22.8531 28.2778 22.9594C28.1425 23.0657 27.981 23.1333 27.8103 23.155C27.536 23.1916 27.3165 23.5208 27.4445 23.7586C27.4982 23.8366 27.5269 23.9291 27.5269 24.0238C27.5269 24.1185 27.4982 24.211 27.4445 24.289C27.4262 24.3439 27.4079 24.3804 27.3896 24.4353H28.8345C28.9809 23.9598 29.0174 23.4477 29.4015 23.0636C29.4381 23.0636 29.4381 23.0453 29.4381 23.0087Z" fill="#309645"/>
<path d="M24.3168 22.588C24.2201 22.5944 24.1234 22.5778 24.0344 22.5396C23.9454 22.5015 23.8667 22.4429 23.8046 22.3685C23.757 22.2889 23.7303 22.1985 23.7271 22.1057C23.7239 22.0129 23.7443 21.9209 23.7863 21.8381L23.8412 21.7284C23.9085 21.5997 23.9636 21.465 24.0058 21.326C24.0663 21.1781 24.0777 21.0147 24.0381 20.8599C23.9986 20.7051 23.9103 20.5672 23.7863 20.4664C23.4754 20.192 22.8353 20.1555 22.4146 20.3567C22.2891 20.4098 22.1821 20.499 22.1072 20.6129C22.0323 20.7269 21.9929 20.8605 21.9939 20.9968C22.011 21.2936 22.0988 21.5821 22.25 21.8381C22.2968 21.9161 22.32 22.006 22.3168 22.0969C22.3135 22.1878 22.284 22.2758 22.2317 22.3502C22.1721 22.4227 22.0964 22.4802 22.0107 22.5183C21.925 22.5564 21.8316 22.574 21.7379 22.5697H18.6835C18.5737 22.7892 18.6652 23.0453 18.6286 23.283C18.6103 23.4294 18.7566 23.6488 18.4457 23.6854C18.4274 23.6854 18.4274 23.7586 18.4274 23.7952C18.4244 23.9143 18.4632 24.0308 18.5371 24.1244C18.9683 24.7029 19.2167 25.3972 19.2505 26.118C19.264 26.4484 19.4011 26.7617 19.6345 26.9959C19.8602 27.2976 20.0276 27.6388 20.1284 28.0018C20.1366 28.0272 20.1375 28.0544 20.131 28.0802C20.1245 28.1061 20.1109 28.1296 20.0918 28.1481C19.982 28.2579 20.0552 28.3493 20.1101 28.4408C20.293 28.7517 20.6039 28.8249 20.9697 28.642C21.1244 28.552 21.3038 28.5135 21.4818 28.5322C21.6907 28.5661 21.9044 28.556 22.1091 28.5024C22.3138 28.4489 22.5051 28.3531 22.6707 28.2213C23.2011 27.8555 23.5669 27.3434 23.9144 26.8313C24.0241 26.6667 24.1887 26.4655 24.0241 26.2277C23.9875 26.1728 24.0607 26.118 24.0973 26.0814C24.1971 26.0086 24.3084 25.953 24.4265 25.9168C24.774 25.7887 24.8472 25.6607 24.8106 25.3132C24.8023 25.1317 24.7653 24.9527 24.7008 24.7828C24.6608 24.6997 24.6536 24.6045 24.6807 24.5163C24.7078 24.4281 24.7673 24.3535 24.8472 24.3073C25.1798 24.0205 25.5415 23.7691 25.9263 23.5574C26.3835 23.3196 26.4201 22.9355 26.3835 22.5331H26.036C25.4873 22.588 24.8472 22.588 24.3168 22.588Z" fill="#F4A51F"/>
<path d="M18.4438 19.5885C18.4438 19.4942 18.4671 19.4014 18.5118 19.3184C18.5565 19.2354 18.6212 19.1648 18.6999 19.113C18.7878 19.0703 18.8838 19.0467 18.9814 19.0435C19.0791 19.0404 19.1764 19.0578 19.2669 19.0947L19.7607 19.2593L19.9619 19.3324C20.1015 19.3507 20.2429 19.3507 20.3826 19.3324C20.5826 19.2887 20.7598 19.1736 20.881 19.0086C21.0022 18.8437 21.0591 18.6402 21.041 18.4362C21.041 18.1802 20.9861 17.5583 20.2911 17.5217H20.2728C20.1448 17.5035 20.0899 17.4852 20.0168 17.5217L19.9802 17.54L19.3583 17.7229C19.2591 17.7831 19.1452 17.8148 19.0291 17.8144H18.9925C18.9168 17.8062 18.8434 17.7831 18.7766 17.7465C18.7098 17.7098 18.6509 17.6603 18.6033 17.6008C18.5557 17.5413 18.5204 17.473 18.4993 17.3998C18.4782 17.3266 18.4718 17.2499 18.4804 17.1742V14.6319H15.4827C15.373 14.6685 15.3364 14.7234 15.4095 14.888C15.4437 14.9471 15.4742 15.0081 15.501 15.0709C15.5738 15.1868 15.6177 15.3185 15.629 15.455L15.6839 15.6928V15.7293C15.6656 15.8075 15.6656 15.8889 15.6839 15.9671V16.0037L15.6656 16.0403C15.6473 16.0768 15.6473 16.1134 15.629 16.1317C15.5797 16.3017 15.4921 16.4581 15.373 16.589C14.8791 17.0645 13.8366 17.0828 13.3245 16.6438C13.1659 16.51 13.0512 16.3316 12.9953 16.1317C12.8672 15.711 13.0319 15.3635 13.1965 15.0343L13.2148 14.9977C13.3062 14.7783 13.2879 14.7051 13.2696 14.6868C13.2513 14.6685 13.1965 14.6136 12.9587 14.6136H10.5444C10.6033 14.7841 10.6159 14.9671 10.581 15.1441C10.5627 15.2538 10.6725 15.2904 10.7456 15.3452C11.0566 15.583 11.3858 15.8391 11.5138 16.2049C11.5716 16.408 11.6927 16.5874 11.8595 16.717L12.6642 17.3023C12.7653 17.3854 12.8887 17.4367 13.0189 17.4497C13.1492 17.4627 13.2803 17.4369 13.3958 17.3754C13.5466 17.296 13.7121 17.2486 13.882 17.236C14.052 17.2234 14.2227 17.2459 14.3835 17.3023C14.4701 17.3349 14.5631 17.3469 14.6552 17.3374C14.7472 17.3279 14.8358 17.2971 14.9139 17.2474C15.2591 17.0744 15.6294 16.9571 16.0113 16.8999C16.432 16.8816 16.56 16.9548 16.7063 17.3023C16.7144 17.3368 16.7296 17.3693 16.751 17.3976C16.7723 17.4259 16.7994 17.4494 16.8304 17.4666C16.8614 17.4839 16.8957 17.4944 16.931 17.4976C16.9663 17.5008 17.0019 17.4966 17.0355 17.4852C17.1317 17.464 17.2297 17.4517 17.3282 17.4486C17.6391 17.412 17.9683 17.6315 17.95 17.9241C17.9413 18.2057 17.8856 18.4839 17.7854 18.7472C17.7351 18.8358 17.7134 18.9379 17.7233 19.0393C17.7331 19.1408 17.7739 19.2368 17.8403 19.3141C17.95 19.4605 18.0598 19.6068 18.1695 19.7714C18.2792 19.936 18.3707 19.9726 18.4621 20.1006C18.4591 20.0088 18.4652 19.9169 18.4804 19.8263C18.453 19.7501 18.4405 19.6694 18.4438 19.5885Z" fill="white"/>
<path d="M18.4639 20.1921L18.3907 20.1006C18.3534 20.0474 18.3104 19.9984 18.2627 19.9543C18.2033 19.8975 18.1483 19.8364 18.0981 19.7714C18.0066 19.6434 17.8969 19.5153 17.8054 19.3873L17.7689 19.3324C17.6984 19.2498 17.6553 19.1475 17.6455 19.0394C17.6357 18.9313 17.6596 18.8228 17.714 18.7289C17.8142 18.4719 17.8698 18.1998 17.8786 17.9241C17.884 17.864 17.8733 17.8035 17.8476 17.7488C17.8219 17.6942 17.7821 17.6474 17.7323 17.6132C17.6086 17.5142 17.4508 17.4682 17.2933 17.4852C17.2617 17.4823 17.23 17.4887 17.2019 17.5034C17.1335 17.5067 17.0658 17.519 17.0007 17.54C16.9635 17.5525 16.9241 17.5572 16.885 17.5537C16.8459 17.5502 16.808 17.5387 16.7736 17.5197C16.7392 17.5008 16.7091 17.475 16.6853 17.4438C16.6614 17.4127 16.6442 17.3769 16.6349 17.3388C16.4886 16.9913 16.3788 16.9365 15.9765 16.9547C15.6425 16.985 15.3186 17.0847 15.0254 17.2474L14.8973 17.3023C14.8122 17.3511 14.7175 17.3813 14.6198 17.3908C14.522 17.4003 14.4233 17.3888 14.3304 17.3571C14.0102 17.2531 13.6619 17.2794 13.361 17.4303C13.2401 17.4956 13.1026 17.5235 12.9658 17.5105C12.829 17.4974 12.6992 17.4441 12.5928 17.3571L12.1722 17.0462C12.0441 16.9547 11.9161 16.8633 11.7881 16.7536C11.6167 16.6165 11.4895 16.432 11.4223 16.2231C11.2942 15.8573 10.965 15.6013 10.6724 15.3818C10.6541 15.3635 10.6358 15.3635 10.6358 15.3452C10.5626 15.2904 10.4895 15.2355 10.5078 15.1258C10.5391 14.9803 10.5328 14.8292 10.4895 14.6868L10.4712 14.5771H12.922C13.1598 14.5771 13.2513 14.6319 13.2695 14.6685C13.2878 14.7051 13.3061 14.7965 13.2147 15.016L13.1964 15.0526C13.0501 15.3818 12.8855 15.7293 13.0135 16.1317C13.074 16.3194 13.1802 16.4891 13.3226 16.6255C13.8347 17.0645 14.8406 17.0279 15.3162 16.5707C15.4382 16.4491 15.5265 16.2978 15.5722 16.1317C15.5905 16.0951 15.5905 16.0585 15.6088 16.0402L15.6271 16.022V15.9854C15.6088 15.901 15.6088 15.8137 15.6271 15.7293V15.711L15.5722 15.4916C15.5562 15.3619 15.5125 15.2371 15.4442 15.1258C15.4101 15.0667 15.3795 15.0056 15.3528 14.9429C15.2796 14.7782 15.3162 14.6868 15.4442 14.6319H18.462V17.2291C18.4465 17.3719 18.4876 17.5152 18.5765 17.628C18.6654 17.7409 18.7951 17.8143 18.9376 17.8327H18.9742C19.0845 17.8331 19.1926 17.8013 19.2851 17.7412H19.3034L19.9252 17.5583L19.9618 17.54C20.0052 17.5217 20.0519 17.5123 20.099 17.5123C20.1461 17.5123 20.1928 17.5217 20.2362 17.54H20.2545C20.9678 17.5766 21.0409 18.2167 21.0409 18.4911C21.0585 18.7045 20.9975 18.917 20.8696 19.0888C20.7416 19.2605 20.5554 19.3796 20.3459 19.4239C20.2002 19.4422 20.0527 19.4422 19.9069 19.4239L19.7058 19.3507L19.2119 19.1861C19.1277 19.1496 19.0364 19.1323 18.9447 19.1354C18.8529 19.1386 18.763 19.1622 18.6815 19.2044C18.6088 19.2523 18.549 19.3175 18.5076 19.394C18.4661 19.4706 18.4442 19.5563 18.4438 19.6434V19.8628C18.4468 19.9547 18.4407 20.0466 18.4255 20.1372L18.4639 20.1921Z" fill="#221E1F"/>
<path d="M12.904 14.3027C13.0103 14.2914 13.1178 14.3036 13.2189 14.3384C13.3201 14.3731 13.4123 14.4296 13.4892 14.5039C13.5361 14.595 13.559 14.6965 13.5558 14.7989C13.5526 14.9013 13.5234 15.0012 13.471 15.0892L13.4527 15.1257C13.3063 15.4367 13.1783 15.7293 13.2698 16.0402C13.3089 16.184 13.392 16.3119 13.5075 16.406C13.8916 16.7353 14.7512 16.717 15.117 16.3695C15.2097 16.2732 15.2731 16.1528 15.2999 16.0219C15.2999 16.0037 15.3182 15.9671 15.3182 15.9488C15.3 15.8583 15.3 15.765 15.3182 15.6744L15.2817 15.4915C15.274 15.3799 15.2361 15.2724 15.1719 15.1806C15.128 15.1113 15.0913 15.0378 15.0622 14.9611C14.8976 14.5588 15.1536 14.3759 15.3365 14.321L15.3731 14.3027H18.3727V14.2661C18.3727 13.9186 18.3909 13.4979 18.4092 13.0956C18.4275 12.6017 18.4641 12.0713 18.4641 11.6507C18.4641 11.358 18.4092 11.3032 18.3909 11.2849C18.3726 11.2666 18.3178 11.2483 18.0617 11.358C17.9154 11.4129 17.7874 11.4495 17.6411 11.5043L17.4582 11.5592C17.2894 11.5958 17.1148 11.5958 16.946 11.5592C16.6932 11.5256 16.4599 11.405 16.2863 11.2181C16.1128 11.0312 16.0097 10.7896 15.995 10.535C15.9767 10.2058 15.9767 9.85825 16.2327 9.54733C16.3683 9.39115 16.5427 9.27343 16.7382 9.206C16.9337 9.13858 17.1435 9.12383 17.3466 9.16324C17.6066 9.20652 17.8591 9.28658 18.0965 9.40101C18.1841 9.43431 18.2796 9.44068 18.3708 9.4193C18.4496 9.38058 18.5185 9.32426 18.572 9.25469C18.3525 9.21811 18.2062 9.03521 18.0233 8.96205C18.005 8.96205 17.9867 8.88889 18.005 8.8706C18.0526 8.83815 18.0926 8.79591 18.1225 8.74673C18.1524 8.69754 18.1715 8.64254 18.1784 8.5854C18.1853 8.52826 18.18 8.47029 18.1627 8.41539C18.1454 8.36048 18.1166 8.3099 18.0782 8.26703C18.0599 8.24874 18.1148 8.21216 18.1331 8.17558C18.1513 8.139 18.1696 8.12071 18.1331 8.10242C17.9867 8.04755 17.877 7.88294 17.6758 8.01097C17.5988 8.05691 17.5088 8.0762 17.4197 8.06584C17.0166 8.05674 16.6133 8.07507 16.2126 8.12071C15.8413 8.1136 15.4769 8.22227 15.1701 8.43164C14.9864 8.56102 14.7762 8.64785 14.5547 8.68581C14.3332 8.72378 14.1061 8.71193 13.8898 8.65112C13.7618 8.61454 13.6886 8.63283 13.6337 8.74257C13.5666 8.87951 13.4484 8.9846 13.3045 9.03521C12.8473 9.21811 12.6461 9.52904 12.701 9.96799C12.7028 10.002 12.6972 10.0359 12.6845 10.0675C12.6719 10.0991 12.6525 10.1276 12.6278 10.1509C12.4833 10.3396 12.2949 10.4903 12.0791 10.5898C11.8571 10.6877 11.6624 10.8384 11.5121 11.0288C11.2561 11.3397 11.1097 11.7055 10.8537 12.0348C10.6525 12.2725 10.3964 12.5469 10.7256 12.8761C10.7326 12.8833 10.7378 12.892 10.7409 12.9015C10.7441 12.911 10.7451 12.921 10.7439 12.931C10.8399 13.4017 10.7755 13.8911 10.561 14.321H11.3841C11.8962 14.3027 12.4449 14.3027 12.9021 14.3027" fill="#C3A466"/>
<path d="M18.4821 9.69366C18.3971 9.72683 18.3062 9.74231 18.215 9.73917C18.1238 9.73602 18.0342 9.71432 17.9517 9.67538C17.7349 9.58165 17.5077 9.51411 17.275 9.47419C17.1298 9.4524 16.9815 9.46783 16.844 9.51901C16.7064 9.57019 16.5841 9.65546 16.4885 9.76682C16.2873 10.0046 16.3056 10.2607 16.3056 10.5716C16.3152 10.7582 16.3901 10.9355 16.5171 11.0726C16.6441 11.2096 16.8153 11.2977 17.0006 11.3215C17.1157 11.3399 17.233 11.3399 17.3481 11.3215C17.403 11.3032 17.4762 11.2849 17.531 11.2666C17.6617 11.2322 17.79 11.1894 17.9151 11.1386C18.1163 11.0654 18.3541 10.974 18.537 11.0837C18.7199 11.1934 18.7565 11.4312 18.7565 11.6873C18.7565 12.1262 18.7382 12.6566 18.7016 13.1505C18.6833 13.5711 18.665 13.9552 18.665 14.3027V14.3942L18.6833 14.4125C18.7192 14.4222 18.7571 14.4222 18.793 14.4125C19.2137 14.4125 19.6344 14.3942 20.0367 14.3759C20.5489 14.3576 21.061 14.3393 21.5914 14.3393H21.8109C21.9938 14.2661 21.9938 14.2296 21.9389 14.0649C21.9023 13.9552 21.8474 13.7723 21.8109 13.626C21.7926 13.5345 21.756 13.4614 21.7377 13.3882C21.6708 13.2184 21.6458 13.035 21.6649 12.8535C21.684 12.672 21.7466 12.4978 21.8474 12.3457C21.9659 12.2006 22.1133 12.0818 22.2802 11.9968C22.4471 11.9118 22.6298 11.8624 22.8168 11.8519C23.0493 11.8169 23.2867 11.8349 23.5113 11.9046C23.7358 11.9743 23.9417 12.0938 24.1136 12.2543C24.2965 12.4554 24.4794 12.8029 24.3148 13.3699C24.2744 13.5037 24.2192 13.6326 24.1501 13.754C24.1319 13.7906 24.1136 13.8455 24.0953 13.8821C24.0749 13.9179 24.0627 13.9578 24.0595 13.9989C24.0564 14.04 24.0623 14.0813 24.077 14.1198C24.1003 14.1446 24.1288 14.1639 24.1604 14.1766C24.192 14.1892 24.2259 14.1948 24.2599 14.193H26.0523C25.9909 14.1206 25.9526 14.0313 25.9426 13.9369C25.9062 13.724 25.788 13.5336 25.6133 13.4065C25.5362 13.3459 25.4745 13.2679 25.4332 13.1789C25.3919 13.0899 25.3721 12.9924 25.3756 12.8944C25.3849 12.7484 25.3561 12.6025 25.2919 12.471C25.2278 12.3396 25.1306 12.227 25.0098 12.1445C24.931 12.0802 24.8789 11.989 24.8635 11.8885C24.8373 11.7411 24.7744 11.6027 24.6806 11.4861C24.4977 11.1569 24.2965 10.8276 24.1136 10.4984C24.0981 10.3999 24.0606 10.3061 24.0038 10.2241C24.0435 10.3075 24.0995 10.3821 24.1684 10.4436C24.1867 10.4618 24.205 10.4984 24.2233 10.5167C24.2782 10.5716 24.333 10.663 24.4062 10.6447C24.4794 10.6264 24.4794 10.5167 24.4977 10.4618C24.5526 10.2667 24.533 10.0581 24.4428 9.87656C24.4307 9.83802 24.4062 9.80457 24.3731 9.78141C24.34 9.75825 24.3002 9.74669 24.2599 9.74853C24.0734 9.74641 23.8883 9.71556 23.7112 9.65708C23.6299 9.62945 23.5435 9.62003 23.4582 9.62952C23.3728 9.639 23.2906 9.66714 23.2174 9.71195C23.092 9.79023 22.9411 9.81648 22.7967 9.78511C22.2704 9.71532 21.7617 9.54784 21.2969 9.29129C21.2054 9.24306 21.1024 9.22096 20.9991 9.22742C20.8959 9.23387 20.7964 9.26862 20.7116 9.32787C20.6472 9.36053 20.5979 9.41684 20.5741 9.48501C20.5502 9.55319 20.5536 9.62796 20.5836 9.69366C20.5986 9.73308 20.5995 9.77645 20.5861 9.81644C20.5728 9.85644 20.5461 9.8906 20.5105 9.91314C20.4646 9.94275 20.4119 9.95999 20.3574 9.9632C20.3029 9.9664 20.2485 9.95546 20.1995 9.93143C20.0112 9.81276 19.7987 9.73777 19.5777 9.71195C19.5364 9.70794 19.4967 9.69426 19.4618 9.67201C19.4268 9.64977 19.3976 9.61959 19.3765 9.58393C19.3292 9.49431 19.2581 9.41953 19.1709 9.36788C19.0837 9.31623 18.984 9.28972 18.8827 9.29129C18.849 9.38367 18.7956 9.46757 18.7261 9.53709C18.6566 9.60661 18.5727 9.66005 18.4803 9.69366" fill="#B92B29"/>
<path d="M21.7564 22.2954C21.8002 22.2975 21.8439 22.2904 21.8848 22.2747C21.9258 22.2589 21.963 22.2348 21.9941 22.204C22.0135 22.1665 22.022 22.1245 22.0188 22.0825C22.0155 22.0405 22.0007 22.0002 21.9758 21.9662C21.813 21.6677 21.7192 21.3364 21.7015 20.9968C21.6998 20.8064 21.7545 20.6197 21.8586 20.4602C21.9627 20.3007 22.1117 20.1756 22.2868 20.1006C22.8355 19.8263 23.6036 19.8994 24.0243 20.2469C24.3718 20.5396 24.4633 20.9237 24.3169 21.3992C24.2638 21.5487 24.2028 21.6952 24.134 21.8382L24.0792 21.9479C24.0544 21.9854 24.0397 22.0287 24.0364 22.0735C24.0332 22.1184 24.0417 22.1633 24.0609 22.204C24.0975 22.2588 24.1889 22.2771 24.2986 22.2954H26.3837L26.3654 21.9296C26.347 21.7866 26.2751 21.656 26.1642 21.5638C26.1122 21.4878 26.0807 21.3996 26.0728 21.3077C26.0179 21.0334 26.1276 20.7408 25.9447 20.4847C25.9264 20.4664 25.9447 20.3933 25.963 20.3567C26.0451 20.1039 26.1621 19.8638 26.3105 19.6434L26.3471 19.6068C26.3759 19.5801 26.4005 19.5493 26.4203 19.5153C26.9141 18.9666 27.3531 18.4179 27.9749 17.9607C28.7431 17.412 28.9626 16.5341 29.2918 15.7293C29.3214 15.6538 29.3339 15.5725 29.3284 15.4916C29.3467 15.3452 29.2735 15.2721 29.1089 15.327C28.6334 15.5281 28.1212 15.5647 27.6274 15.6928C27.5773 15.7137 27.5217 15.7179 27.469 15.7047C27.4162 15.6915 27.3692 15.6617 27.3348 15.6196C27.2433 15.4916 26.9507 15.4184 27.1519 15.1623C27.1702 15.1441 27.1153 15.0892 27.097 15.0526C26.8893 14.8267 26.6629 14.6186 26.4203 14.4307H26.2374C25.6155 14.4307 24.7925 14.449 24.2621 14.4307C24.1754 14.4358 24.0887 14.4202 24.0092 14.3852C23.9297 14.3502 23.8597 14.2969 23.8048 14.2296C23.7562 14.1537 23.7288 14.0661 23.7256 13.976C23.7224 13.8859 23.7434 13.7966 23.7865 13.7174C23.8039 13.6711 23.8286 13.6279 23.8597 13.5894C23.9146 13.4614 23.9694 13.3516 24.006 13.2419C24.0628 13.1032 24.0808 12.9517 24.0583 12.8035C24.0357 12.6554 23.9734 12.5161 23.878 12.4006C23.745 12.2763 23.5847 12.185 23.4099 12.1342C23.2352 12.0833 23.0509 12.0743 22.872 12.1079C22.7283 12.1125 22.5872 12.1475 22.4579 12.2105C22.3287 12.2736 22.2142 12.3633 22.1222 12.4737C22.0491 12.5933 22.0045 12.7281 21.9919 12.8676C21.9792 13.0071 21.9987 13.1477 22.049 13.2785C22.0675 13.3594 22.092 13.4389 22.1222 13.5163C22.1587 13.6626 22.2136 13.8272 22.2502 13.9369C22.3782 14.2478 22.2685 14.449 21.921 14.5771L21.8844 14.5954H21.61C21.0796 14.5954 20.5675 14.6136 20.0554 14.6319C19.653 14.6502 19.2323 14.6685 18.8117 14.6685H18.7385V17.1011C18.7385 17.3388 18.83 17.412 18.9763 17.4486C19.006 17.4509 19.0359 17.4472 19.0641 17.4378C19.0924 17.4284 19.1185 17.4134 19.1409 17.3937L19.1775 17.3754L19.7993 17.1925C19.9428 17.1273 20.1046 17.1144 20.2566 17.1559C20.8967 17.1925 21.2991 17.6498 21.2991 18.3631C21.3079 18.6317 21.2235 18.8951 21.0601 19.1085C20.8967 19.3218 20.6645 19.4721 20.4029 19.5336C20.2218 19.5702 20.0353 19.5702 19.8542 19.5336H19.8359L19.6164 19.4605L19.1226 19.2959C19.0804 19.2733 19.0333 19.2615 18.9854 19.2615C18.9376 19.2615 18.8905 19.2733 18.8483 19.2959C18.7793 19.3634 18.7399 19.4554 18.7385 19.5519V19.7531C18.7486 20.0244 18.7177 20.2957 18.6471 20.5579H18.627L18.7916 20.942C18.8281 21.0151 18.9013 21.0883 18.8464 21.1797C18.8064 21.2488 18.7901 21.3292 18.8 21.4084C18.8099 21.4877 18.8455 21.5615 18.9013 21.6187C19.0476 21.8747 19.1391 22.0211 18.9379 22.2222C19.8524 22.2954 20.8766 22.2954 21.7545 22.2954" fill="#299347"/>
<path d="M13.855 2.68863L15.7754 4.75539L15.0073 5.04803L14.6598 4.66394L13.7087 5.02974L13.727 5.54185L13.0137 5.8162L13.032 2.99956L13.855 2.68863ZM13.5989 3.36536L13.6721 4.48104L14.2757 4.24327L13.5989 3.36536Z" fill="black"/>
<path d="M15.5009 3.45679L15.3911 3.01783L15.7203 2.94467C15.6992 2.86705 15.687 2.78729 15.6838 2.70691V2.46914C15.6821 2.39817 15.7012 2.32827 15.7386 2.26795C15.7767 2.20442 15.8263 2.14858 15.8849 2.10334C15.9032 2.08505 15.9215 2.08505 15.9581 2.06676C15.9947 2.04847 15.9947 2.04847 16.0313 2.03018C16.0678 2.01189 16.0861 2.01189 16.1044 1.9936C16.1227 1.97531 16.1593 1.97531 16.1776 1.97531H16.2873C16.3239 1.97531 16.3605 1.95702 16.3971 1.95702C16.4336 1.95702 16.4702 1.93873 16.5068 1.93873H16.5617C16.5716 1.93993 16.5817 1.93891 16.5912 1.93574C16.6006 1.93258 16.6093 1.92735 16.6165 1.92044H16.6897L16.7994 2.3594H16.58C16.5434 2.37769 16.5068 2.37769 16.4885 2.41427C16.4656 2.43926 16.4526 2.47179 16.4519 2.50572C16.4519 2.5423 16.4336 2.57888 16.4519 2.61546C16.449 2.65298 16.4553 2.69064 16.4702 2.7252V2.76178V2.79836L16.8543 2.70691L16.964 3.14586L16.58 3.23731L16.8909 4.57248L16.1959 4.73708L15.8831 3.40192L15.5009 3.45679Z" fill="black"/>
<path d="M18.9395 2.32284C18.9127 2.27757 18.875 2.23981 18.8297 2.2131C18.7871 2.17798 18.7371 2.15297 18.6834 2.13994C18.6237 2.12481 18.562 2.11865 18.5005 2.12165C18.408 2.12624 18.3189 2.15805 18.2444 2.2131C18.2105 2.2361 18.1816 2.26582 18.1596 2.30042C18.1376 2.33503 18.1229 2.37378 18.1164 2.41429C18.0953 2.49812 18.083 2.58395 18.0798 2.67034V3.1093C18.0935 3.22115 18.118 3.33141 18.153 3.43852C18.1825 3.52086 18.2192 3.60043 18.2627 3.67629C18.2987 3.7429 18.357 3.79471 18.4273 3.82261C18.5025 3.85393 18.5841 3.86648 18.6651 3.85919C18.7361 3.86081 18.806 3.84174 18.8663 3.80432C18.9206 3.78403 18.966 3.74515 18.9943 3.69458C19.0294 3.65195 19.0545 3.60193 19.0675 3.54826C19.0825 3.50103 19.0887 3.45142 19.0858 3.40194L19.854 3.32878V3.49339C19.8551 3.50332 19.8541 3.51339 19.851 3.52288C19.8478 3.53236 19.8426 3.54103 19.8357 3.54826C19.8163 3.63719 19.7856 3.72326 19.7442 3.80432C19.6929 3.89568 19.6246 3.97639 19.543 4.04209C19.4532 4.124 19.3473 4.1863 19.2321 4.22499C18.8831 4.33561 18.5114 4.3545 18.153 4.27986C17.9873 4.25272 17.8337 4.17623 17.7122 4.06038C17.6006 3.94804 17.5079 3.81832 17.4379 3.67629C17.3675 3.5125 17.3183 3.3404 17.2915 3.16417V3.09101C17.2648 2.87718 17.2772 2.66027 17.3281 2.45087C17.3619 2.28413 17.4447 2.13128 17.5659 2.01191C17.6816 1.89597 17.8181 1.80289 17.9683 1.73756C18.1301 1.66505 18.3035 1.62171 18.4804 1.60953C18.6692 1.58675 18.8604 1.59291 19.0474 1.62782C19.1867 1.63889 19.32 1.68967 19.4315 1.77414C19.529 1.84044 19.6103 1.92798 19.6692 2.0302C19.7249 2.13911 19.762 2.25656 19.779 2.37771L19.0108 2.43258C18.9742 2.41429 18.9559 2.35942 18.9376 2.32284" fill="black"/>
<path d="M22.1769 1.70096L22.1403 2.24965L21.043 2.17649L20.9881 2.78006L22.0123 2.83493L21.994 3.34705L20.9698 3.27389L20.8966 4.24325L20.165 4.20667L20.3296 1.59122L22.1769 1.70096Z" fill="black"/>
<path d="M24.9387 2.23137L24.8289 2.76177L24.0242 2.59716L23.6035 4.62734L22.9085 4.48102L23.3292 2.45084L22.5244 2.28624L22.6342 1.75583L24.9387 2.23137Z" fill="black"/>
<path d="M26.8959 2.94469L26.9324 5.76133L26.1643 5.46869L26.1826 4.95658L25.2315 4.59078L24.9023 4.97487L24.189 4.70052L26.1094 2.63376L26.8959 2.94469ZM26.2557 3.2739L25.5607 4.13353L26.1643 4.3713L26.2557 3.2739Z" fill="black"/>
<path d="M11.6234 26.9776C11.6303 26.9704 11.6356 26.9617 11.6387 26.9522C11.6419 26.9427 11.6429 26.9326 11.6417 26.9227V26.8496C11.6417 26.8313 11.6234 26.7947 11.6234 26.7764C11.6097 26.7387 11.584 26.7066 11.5503 26.685C11.5222 26.6702 11.4904 26.6638 11.4588 26.6667C11.4222 26.6667 11.3857 26.685 11.3491 26.685C11.3102 26.6887 11.2727 26.7012 11.2393 26.7215C11.2028 26.7398 11.1662 26.7764 11.1296 26.7947C11.093 26.813 11.0747 26.8496 11.0564 26.8678C11.0335 26.8928 11.0205 26.9254 11.0199 26.9593C11.017 26.9909 11.0234 27.0227 11.0382 27.0507C11.0518 27.0783 11.0704 27.1031 11.093 27.1239C11.1113 27.1422 11.1296 27.1605 11.1479 27.1605H11.2211C11.231 27.1617 11.2411 27.1607 11.2505 27.1575C11.26 27.1543 11.2687 27.1491 11.2759 27.1422L11.3674 27.4714C11.3625 27.4714 11.3579 27.4733 11.3544 27.4768C11.351 27.4802 11.3491 27.4849 11.3491 27.4897H11.1845C11.1403 27.4837 11.0971 27.4714 11.0564 27.4531C11.0096 27.429 10.9665 27.3982 10.9284 27.3617C10.8835 27.3128 10.8465 27.2573 10.8187 27.1971C10.7801 27.1148 10.7495 27.0291 10.7272 26.941C10.7143 26.8736 10.7207 26.8038 10.7455 26.7398C10.7689 26.6772 10.8064 26.6208 10.8553 26.5752C10.9085 26.5224 10.9703 26.4791 11.0382 26.4472C11.1182 26.4035 11.2046 26.3726 11.2942 26.3557C11.3617 26.3428 11.4314 26.3492 11.4954 26.374C11.558 26.3974 11.6144 26.4349 11.66 26.4838C11.7128 26.537 11.7561 26.5988 11.788 26.6667C11.8246 26.7581 11.8612 26.8313 11.8795 26.8861C11.8978 26.9457 11.8978 27.0095 11.8795 27.069C11.8664 27.1172 11.8412 27.1613 11.8063 27.1971C11.7745 27.2328 11.7375 27.2636 11.6966 27.2885L11.5503 26.9959C11.5868 27.0142 11.6051 26.9959 11.6234 26.9776Z" fill="#9E2140"/>
<path d="M11.9713 27.5629L11.953 27.5812L11.9347 27.5994L11.9164 27.6177L11.8981 27.636H11.8798L11.8615 27.6543H11.8249C11.8472 27.6416 11.8725 27.6353 11.8981 27.636C11.9239 27.6333 11.9498 27.6398 11.9713 27.6543C11.9895 27.6726 12.0078 27.6726 12.0444 27.6909C12.067 27.7117 12.0856 27.7365 12.0993 27.7641L11.8981 27.9104L11.8432 27.8555C11.8249 27.8372 11.8067 27.8372 11.7701 27.8189H11.6969C11.6694 27.8235 11.6439 27.8362 11.6238 27.8555L11.3494 28.075L11.1665 27.8372L11.6238 27.4897C11.6286 27.4897 11.6333 27.4878 11.6367 27.4843C11.6401 27.4809 11.642 27.4763 11.642 27.4714L11.6603 27.4531L11.6786 27.4348C11.6786 27.43 11.6805 27.4253 11.684 27.4219C11.6874 27.4185 11.6921 27.4165 11.6969 27.4165C11.7068 27.4066 11.7196 27.4002 11.7335 27.3983L11.9713 27.5629Z" fill="#9E2140"/>
<path d="M12.3367 28.6968C12.323 28.7129 12.3063 28.726 12.2874 28.7354C12.2685 28.7448 12.248 28.7504 12.227 28.7517C12.2101 28.7607 12.1912 28.7654 12.1721 28.7654C12.153 28.7654 12.1341 28.7607 12.1172 28.7517C12.0701 28.7463 12.0256 28.7272 11.9892 28.6968C11.9526 28.6786 11.916 28.642 11.8612 28.6054C11.8133 28.5662 11.7757 28.516 11.7514 28.4591C11.7274 28.414 11.7148 28.3638 11.7148 28.3128C11.7148 28.2617 11.7274 28.2115 11.7514 28.1664C11.7757 28.1095 11.8133 28.0593 11.8612 28.0201C11.9027 27.9793 11.9526 27.9481 12.0075 27.9287C12.0537 27.9079 12.1033 27.8956 12.1538 27.8921C12.2047 27.8933 12.2547 27.9058 12.3001 27.9287C12.3528 27.9524 12.402 27.9832 12.4464 28.0201C12.4947 28.0704 12.5376 28.1256 12.5745 28.1847C12.5896 28.2382 12.5957 28.2938 12.5928 28.3493C12.5775 28.3992 12.5592 28.4481 12.5379 28.4957C12.5013 28.5505 12.4647 28.5871 12.4281 28.642L12.0422 28.2579L12.0239 28.2762L12.0057 28.2945L11.9874 28.3128C11.9874 28.3176 11.9854 28.3223 11.982 28.3257C11.9786 28.3291 11.9739 28.331 11.9691 28.331C11.9691 28.3493 11.9508 28.3493 11.9508 28.3676V28.4042C11.9508 28.4225 11.9508 28.4225 11.9691 28.4408C11.9874 28.4591 11.9874 28.4591 12.0057 28.4774C12.0239 28.4774 12.0239 28.4957 12.0422 28.4957C12.0605 28.4957 12.0605 28.4957 12.0788 28.5139H12.1154C12.1337 28.5139 12.1337 28.4957 12.152 28.4957L12.3367 28.6968ZM12.3367 28.2945C12.3367 28.2762 12.355 28.2579 12.355 28.2396V28.1847C12.3531 28.1709 12.3466 28.158 12.3367 28.1481C12.3184 28.1299 12.3184 28.1299 12.3001 28.1299H12.2453C12.2353 28.1287 12.2253 28.1297 12.2158 28.1328C12.2063 28.136 12.1976 28.1412 12.1904 28.1481C12.1721 28.1481 12.1538 28.1664 12.1355 28.1847L12.3184 28.3676C12.3184 28.331 12.3184 28.3128 12.3367 28.2945Z" fill="#9E2140"/>
<path d="M12.7208 29.209C12.7159 29.209 12.7113 29.2109 12.7078 29.2143C12.7044 29.2177 12.7025 29.2224 12.7025 29.2272H12.5909C12.5726 29.2272 12.5543 29.209 12.5361 29.209C12.5178 29.209 12.4995 29.1907 12.4812 29.1724C12.4629 29.1541 12.408 29.1175 12.3897 29.0809C12.3714 29.0443 12.3532 29.0261 12.3532 29.0078V28.9346C12.3504 28.9088 12.3569 28.8829 12.3714 28.8614V28.8432C12.3988 28.8157 12.3988 28.8157 12.4263 28.7883C12.4629 28.7517 12.4995 28.7151 12.5361 28.7151C12.5855 28.7039 12.6373 28.7103 12.6824 28.7334C12.7404 28.75 12.7958 28.7747 12.847 28.8066L13.0116 28.9163C13.0299 28.898 13.0299 28.8797 13.0482 28.8614C13.0586 28.852 13.0651 28.8389 13.0665 28.8249V28.7883C13.0665 28.77 13.0482 28.77 13.0299 28.7517C13.0116 28.7334 13.0116 28.7334 12.9933 28.7334H12.9567C12.9384 28.7334 12.9384 28.7334 12.9201 28.7517L12.9018 28.77L12.6824 28.5871C12.704 28.5533 12.7361 28.5276 12.7738 28.5139C12.8084 28.499 12.846 28.4928 12.8836 28.4956C12.9282 28.4992 12.9718 28.5117 13.0116 28.5322C13.0482 28.5505 13.103 28.5871 13.1396 28.6054C13.1762 28.6237 13.2128 28.6603 13.2311 28.6968C13.2616 28.7289 13.2864 28.766 13.3042 28.8066C13.3191 28.8411 13.3254 28.8788 13.3225 28.9163C13.3225 28.9529 13.3042 28.9712 13.2859 29.0078L13.0482 29.3187C13.0482 29.337 13.0299 29.337 13.0299 29.3553C13.0299 29.3736 13.0116 29.3736 13.0116 29.3919C13.0116 29.4101 12.9933 29.4101 12.9933 29.4284C12.9933 29.4467 12.975 29.465 12.975 29.4833L12.7555 29.3004V29.2455C12.7007 29.2455 12.7007 29.2272 12.719 29.209M12.8653 28.9895C12.8558 28.979 12.8427 28.9725 12.8287 28.9712C12.8238 28.9712 12.8192 28.9693 12.8158 28.9658C12.8123 28.9624 12.8104 28.9577 12.8104 28.9529C12.7965 28.951 12.7837 28.9445 12.7738 28.9346C12.7555 28.9346 12.7372 28.9163 12.719 28.9163H12.6824C12.6641 28.9163 12.6641 28.9163 12.6458 28.9346C12.6458 28.9529 12.6275 28.9529 12.6275 28.9712V29.0078C12.6275 29.0261 12.6275 29.0443 12.6458 29.0443C12.6641 29.0443 12.6641 29.0626 12.6641 29.0809H12.7555C12.7738 29.0809 12.7738 29.0809 12.7738 29.0626L12.7921 29.0443L12.8104 29.0261L12.8287 29.0078C12.8653 29.0078 12.8836 29.0078 12.8653 28.9895Z" fill="#9E2140"/>
<path d="M13.8714 28.9163L13.7433 29.0992L13.8896 29.1907L13.7982 29.337L13.6519 29.2455L13.4873 29.5199C13.4803 29.5271 13.4751 29.5358 13.472 29.5453C13.4688 29.5548 13.4678 29.5648 13.469 29.5748V29.6113C13.469 29.6296 13.469 29.6296 13.4873 29.6296L13.5056 29.6479H13.5787L13.4873 29.7942C13.4324 29.7668 13.4324 29.7668 13.3775 29.7394C13.3592 29.7394 13.3592 29.7211 13.3409 29.7211C13.3062 29.7025 13.2752 29.6777 13.2495 29.6479C13.2312 29.6296 13.2129 29.5931 13.1946 29.5748C13.178 29.5474 13.1716 29.515 13.1763 29.4833C13.1763 29.4467 13.1946 29.4284 13.2129 29.3919L13.4324 29.0444L13.3044 28.9712L13.3958 28.8249L13.5238 28.898L13.5787 28.7883L13.8714 28.9163Z" fill="#9E2140"/>
<path d="M14.2373 29.3736L13.8532 30.0503L13.5972 29.904L13.9813 29.2273L14.2373 29.3736ZM14.3836 29.081L14.2922 29.2456L14.0361 29.0992L14.1276 28.9346L14.3836 29.081Z" fill="#9E2140"/>
<path d="M14.6032 29.5565V29.6662C14.6215 29.6662 14.6397 29.6479 14.658 29.6479C14.668 29.6491 14.678 29.6481 14.6875 29.6449C14.697 29.6418 14.7057 29.6365 14.7129 29.6296H14.7861C14.8044 29.6296 14.8409 29.6479 14.8592 29.6479C14.8641 29.6479 14.8687 29.6499 14.8722 29.6533C14.8756 29.6567 14.8775 29.6614 14.8775 29.6662L14.8958 29.6845C14.9141 29.6845 14.9141 29.7028 14.9324 29.7028L14.9507 29.7211C14.969 29.7394 14.9872 29.7577 14.9872 29.776C14.9872 29.7942 15.0055 29.8125 15.0238 29.8308C15.0384 29.8523 15.0449 29.8782 15.0421 29.904C15.0342 29.9341 15.0281 29.9646 15.0238 29.9954L14.7861 30.4893L14.53 30.3612L14.7312 29.9406C14.7381 29.9333 14.7433 29.9247 14.7465 29.9152C14.7497 29.9057 14.7507 29.8956 14.7495 29.8857V29.8308C14.7475 29.817 14.7411 29.8041 14.7312 29.7942C14.7129 29.776 14.7129 29.776 14.6946 29.776H14.6215C14.6076 29.7779 14.5947 29.7843 14.5849 29.7942L14.5483 29.8308L14.3471 30.2515L14.0728 30.1235L14.3288 29.5748V29.5016C14.3288 29.4833 14.3288 29.4833 14.3471 29.4833V29.4102L14.6032 29.5565Z" fill="#9E2140"/>
<path d="M15.446 30.6356C15.4277 30.6356 15.4094 30.6539 15.3911 30.6539H15.2082C15.16 30.6407 15.116 30.6156 15.0802 30.5807C15.0496 30.5486 15.0249 30.5115 15.007 30.471C14.9911 30.4239 14.9849 30.3742 14.9888 30.3246C14.9922 30.2741 15.0046 30.2246 15.0253 30.1783C15.0385 30.1301 15.0636 30.0861 15.0985 30.0503C15.1304 30.0146 15.1673 29.9837 15.2082 29.9588C15.2481 29.9383 15.2916 29.9259 15.3363 29.9223C15.3857 29.9204 15.4351 29.9266 15.4826 29.9406C15.5192 29.9588 15.5374 29.9588 15.5557 29.9771C15.574 29.9954 15.5923 30.0137 15.6106 30.0137C15.6289 30.0137 15.6289 30.0503 15.6472 30.0686C15.6655 30.0869 15.6655 30.1052 15.6655 30.1417V30.0503L15.9398 30.1417L15.7569 30.7636C15.7363 30.8141 15.7118 30.8631 15.6838 30.9099C15.6517 30.9405 15.6146 30.9652 15.574 30.9831C15.5321 30.9977 15.4893 31.0099 15.446 31.0197H15.2082C15.1899 31.0197 15.1899 31.0197 15.1717 31.0014C15.1534 30.9831 15.1534 30.9831 15.1351 30.9831C15.1302 30.9831 15.1256 30.9812 15.1221 30.9777C15.1187 30.9743 15.1168 30.9696 15.1168 30.9648H15.0985C15.0802 30.9465 15.0802 30.9465 15.0619 30.9282C15.0436 30.9099 15.007 30.8916 14.9888 30.8733C14.9662 30.8525 14.9476 30.8277 14.9339 30.8002C14.9173 30.7728 14.9108 30.7404 14.9156 30.7087C14.9127 30.6771 14.9191 30.6454 14.9339 30.6173L15.2082 30.7087V30.7819C15.2082 30.8002 15.2265 30.8002 15.2265 30.8185L15.2631 30.8551C15.2917 30.8683 15.323 30.8746 15.3545 30.8733C15.3728 30.8733 15.3911 30.8551 15.4094 30.8368C15.4277 30.8185 15.4277 30.8002 15.446 30.7636C15.4643 30.727 15.4643 30.7087 15.4826 30.6722C15.4826 30.6173 15.4643 30.6356 15.446 30.6356ZM15.5923 30.3429C15.6071 30.3149 15.6135 30.2831 15.6106 30.2515V30.1966C15.6106 30.1783 15.5923 30.16 15.5923 30.1417C15.5923 30.1235 15.5557 30.1235 15.5374 30.1052H15.4643C15.446 30.1052 15.446 30.1052 15.4277 30.1235C15.4094 30.1417 15.4094 30.1417 15.3911 30.1417C15.3748 30.1569 15.3622 30.1757 15.3545 30.1966C15.3363 30.2149 15.3363 30.2332 15.318 30.2698C15.3032 30.2979 15.2968 30.3296 15.2997 30.3612V30.4344C15.2997 30.4527 15.318 30.471 15.3363 30.4893C15.3546 30.5075 15.3728 30.5075 15.3911 30.5258C15.4094 30.5441 15.446 30.5441 15.4643 30.5441C15.4826 30.5441 15.5009 30.5258 15.5192 30.5258L15.574 30.471C15.5673 30.4496 15.5655 30.427 15.5687 30.4049C15.5718 30.3827 15.5799 30.3616 15.5923 30.3429Z" fill="#9E2140"/>
<path d="M16.4886 30.3064C16.5255 30.2472 16.5684 30.192 16.6166 30.1418C16.6718 30.09 16.7425 30.0578 16.8178 30.0503C16.9157 30.0386 17.0148 30.0448 17.1105 30.0686C17.1743 30.085 17.2358 30.1096 17.2934 30.1418C17.3501 30.1743 17.3999 30.2178 17.4397 30.2698C17.4856 30.327 17.5113 30.3977 17.5128 30.471C17.5241 30.5628 17.5179 30.6559 17.4945 30.7453C17.4945 30.7636 17.4945 30.7819 17.4763 30.7819C17.458 30.7819 17.4763 30.8185 17.458 30.8185V30.8551C17.4397 30.8733 17.4397 30.8733 17.4214 30.8916C17.3972 30.9385 17.3664 30.9816 17.3299 31.0197C17.2953 31.0601 17.2514 31.0915 17.2019 31.1111C17.1538 31.1455 17.0964 31.1647 17.0373 31.166C16.9637 31.169 16.8899 31.1629 16.8178 31.1477C16.7189 31.1338 16.6247 31.0961 16.5435 31.038C16.4769 31.002 16.4251 30.9437 16.3972 30.8734C16.3789 30.8185 16.3606 30.7453 16.3423 30.6905V30.4893C16.3977 30.4339 16.4468 30.3726 16.4886 30.3064ZM16.7081 30.6905C16.7051 30.7339 16.7114 30.7776 16.7264 30.8185C16.7405 30.8513 16.759 30.882 16.7812 30.9099C16.8159 30.9319 16.8526 30.9503 16.891 30.9648C16.9276 30.9648 16.9641 30.9831 17.0007 30.9648C17.0373 30.9465 17.0556 30.9465 17.0922 30.9099C17.1209 30.8832 17.1456 30.8524 17.1653 30.8185C17.1866 30.7709 17.205 30.722 17.2202 30.6722C17.2339 30.6309 17.24 30.5876 17.2385 30.5441C17.2414 30.5007 17.2352 30.457 17.2202 30.4161C17.2061 30.3833 17.1876 30.3526 17.1653 30.3247C17.133 30.299 17.0956 30.2803 17.0556 30.2698C17.0387 30.2608 17.0199 30.2561 17.0007 30.2561C16.9816 30.2561 16.9628 30.2608 16.9459 30.2698C16.9082 30.2835 16.876 30.3092 16.8544 30.3429C16.8361 30.3795 16.7995 30.4161 16.7812 30.4527C16.7596 30.4939 16.7413 30.5367 16.7264 30.5807C16.7081 30.599 16.7081 30.6539 16.7081 30.6905Z" fill="#9E2140"/>
<path d="M17.9337 30.5807V30.6905C17.952 30.6722 17.9702 30.6722 17.9702 30.6539C17.9775 30.647 17.9861 30.6417 17.9956 30.6386C18.0051 30.6354 18.0152 30.6344 18.0251 30.6356C18.0434 30.6356 18.0617 30.6173 18.0983 30.6173H18.2263C18.2446 30.6173 18.2446 30.6173 18.2629 30.6356C18.2812 30.6539 18.2812 30.6356 18.2995 30.6539C18.3178 30.6722 18.336 30.6722 18.3543 30.6905L18.4092 30.7453C18.4275 30.7636 18.4275 30.7819 18.4458 30.8185V30.9099L18.3543 31.4403L18.08 31.4038L18.1531 30.9465V30.8916C18.1531 30.8734 18.1349 30.8551 18.1349 30.8368L18.0983 30.8002C18.08 30.8002 18.08 30.7819 18.0617 30.7819H18.0251C18.0113 30.7838 17.9984 30.7903 17.9885 30.8002L17.952 30.8368C17.952 30.8551 17.9337 30.8734 17.9337 30.8916L17.8605 31.3672L17.5679 31.3123L17.6593 30.7087V30.5258L17.9337 30.5807Z" fill="#9E2140"/>
<path d="M19.3053 31.2757C19.287 31.3123 19.287 31.3672 19.2505 31.3855C19.2288 31.4192 19.1967 31.4449 19.159 31.4586C19.1201 31.4815 19.0761 31.4941 19.031 31.4952H18.8847C18.8221 31.4936 18.7602 31.4812 18.7018 31.4586C18.6523 31.439 18.6083 31.4076 18.5737 31.3672C18.5389 31.3314 18.5137 31.2874 18.5006 31.2392C18.4822 31.1796 18.4822 31.1158 18.5006 31.0563C18.504 30.9998 18.5163 30.9442 18.5371 30.8917C18.5568 30.8422 18.5882 30.7982 18.6286 30.7636C18.6671 30.7325 18.7103 30.7078 18.7566 30.6905C18.8101 30.6754 18.8657 30.6692 18.9212 30.6722C18.9922 30.6706 19.0621 30.6896 19.1224 30.727C19.1677 30.7538 19.2054 30.7915 19.2322 30.8368L19.287 31.0014C19.3054 31.061 19.3054 31.1247 19.287 31.1843L18.7383 31.1294V31.2026C18.7383 31.2209 18.7383 31.2209 18.7566 31.2392C18.7749 31.2575 18.7749 31.2575 18.7749 31.2757C18.7749 31.294 18.7932 31.294 18.8115 31.294C18.8298 31.294 18.8481 31.3123 18.8664 31.3123H18.9029C18.9212 31.3123 18.9212 31.294 18.9395 31.294C18.9578 31.294 18.9578 31.2757 18.9761 31.2574C18.9944 31.2392 18.9944 31.2392 18.9944 31.2209L19.3053 31.2757ZM19.0493 30.9648C19.0493 30.9465 19.031 30.9282 19.031 30.9099L18.9944 30.8734C18.9761 30.8734 18.9578 30.8551 18.9395 30.8551H18.8847C18.8752 30.8559 18.8664 30.86 18.8597 30.8667C18.853 30.8734 18.8489 30.8822 18.8481 30.8917C18.8298 30.9099 18.8298 30.9282 18.8115 30.9465C18.7932 30.9648 18.7932 30.9831 18.7932 31.0014L19.0493 31.0197V30.9648Z" fill="#9E2140"/>
<path d="M20.5855 30.4527L21.0245 31.5501H20.677L20.6038 31.3489H20.1831L20.11 31.5501H19.7808L20.2014 30.4527H20.5855ZM20.3843 30.6904L20.238 31.1294H20.5124L20.3843 30.6904Z" fill="#9E2140"/>
<path d="M21.0046 30.9648L20.9863 30.7819H21.1326V30.6904C21.1298 30.6588 21.1362 30.6271 21.1509 30.599C21.1512 30.5848 21.1546 30.5709 21.161 30.5583C21.1673 30.5456 21.1764 30.5345 21.1875 30.5258C21.2084 30.5032 21.2332 30.4846 21.2607 30.471C21.279 30.471 21.279 30.471 21.2973 30.4527H21.5899L21.6082 30.6356H21.535C21.5167 30.6356 21.4984 30.6356 21.4984 30.6539C21.4984 30.6721 21.4802 30.6721 21.4802 30.6904C21.4802 30.7087 21.4802 30.727 21.4619 30.727V30.8002L21.6265 30.7819L21.6448 30.9648L21.4802 30.9831L21.5167 31.5501L21.2241 31.5684L21.1875 31.0014L21.0046 30.9648Z" fill="#9E2140"/>
<path d="M21.9575 30.7087V30.855C21.9578 30.8409 21.9612 30.827 21.9676 30.8143C21.9739 30.8017 21.983 30.7906 21.9941 30.7819L22.049 30.727C22.0673 30.7087 22.1039 30.7087 22.1221 30.6904C22.1522 30.6826 22.1828 30.6764 22.2136 30.6721L22.2319 30.9099C22.1953 30.9099 22.177 30.9099 22.1587 30.9282C22.1404 30.9465 22.1221 30.9465 22.1039 30.9648C22.0856 30.9831 22.0673 31.0014 22.0673 31.0197C22.0673 31.0379 22.049 31.0745 22.0673 31.0928L22.1039 31.4403L21.8112 31.4769L21.7563 30.8916V30.8368V30.7453L21.9575 30.7087Z" fill="#9E2140"/>
<path d="M22.5426 30.3064L22.5609 30.4893L22.2683 30.5258L22.25 30.3429L22.5426 30.3064ZM22.5792 30.6173L22.689 31.3855L22.3963 31.4221L22.2866 30.6539L22.5792 30.6173Z" fill="#9E2140"/>
<path d="M23.5486 30.9282C23.567 30.9753 23.567 31.0275 23.5486 31.0745C23.5303 31.1111 23.5121 31.166 23.4755 31.1843C23.4389 31.2026 23.4023 31.2391 23.3657 31.2757C23.3181 31.297 23.2693 31.3153 23.2194 31.3306C23.1659 31.3457 23.1103 31.3519 23.0548 31.3489C23.0097 31.3478 22.9656 31.3352 22.9268 31.3123C22.8921 31.2937 22.8611 31.2689 22.8353 31.2391C22.817 31.2209 22.7987 31.1843 22.7805 31.166C22.7621 31.1294 22.7621 31.1294 22.7438 31.0928C22.7439 31.0745 22.7439 31.0745 22.7256 31.0562V30.8551C22.7425 30.8029 22.7672 30.7536 22.7987 30.7087C22.8306 30.673 22.8676 30.6422 22.9085 30.6173C22.9561 30.596 23.0049 30.5777 23.0548 30.5624H23.2011C23.2386 30.5595 23.2763 30.5658 23.3109 30.5807C23.3448 30.5813 23.3773 30.5943 23.4023 30.6173C23.435 30.6317 23.4611 30.6578 23.4755 30.6904C23.4958 30.7238 23.5083 30.7613 23.5121 30.8002L23.2194 30.8551C23.2206 30.8451 23.2196 30.8351 23.2164 30.8256C23.2133 30.8161 23.208 30.8074 23.2011 30.8002C23.2011 30.7819 23.1828 30.7819 23.1828 30.7636C23.1828 30.7453 23.1645 30.7453 23.1463 30.7453H23.0914C23.0775 30.7473 23.0647 30.7537 23.0548 30.7636C23.0479 30.7708 23.0427 30.7795 23.0395 30.789C23.0363 30.7985 23.0353 30.8085 23.0365 30.8185V30.9648C23.0365 31.0014 23.0548 31.0197 23.0548 31.038C23.0594 31.0655 23.0721 31.091 23.0914 31.1111C23.1097 31.1294 23.1097 31.1477 23.128 31.1477C23.1463 31.1477 23.1645 31.166 23.1828 31.1477C23.2011 31.1294 23.2194 31.1477 23.2194 31.1294C23.2194 31.1111 23.2377 31.1111 23.256 31.0928C23.2743 31.0745 23.2743 31.0562 23.2743 31.038V30.9648L23.5486 30.9282Z" fill="#9E2140"/>
<path d="M24.152 31.0014V31.038C24.152 31.0563 24.1337 31.0563 24.1337 31.0745L24.0971 31.1111C24.0788 31.1294 24.0605 31.1294 24.0422 31.1477C24.0239 31.166 24.0057 31.166 23.9691 31.166C23.9278 31.1797 23.8845 31.1858 23.841 31.1843C23.8094 31.1891 23.777 31.1826 23.7496 31.166C23.7313 31.1477 23.6947 31.1477 23.6947 31.1294C23.6947 31.1111 23.6581 31.0928 23.6581 31.0745C23.6581 31.0697 23.6562 31.065 23.6528 31.0616C23.6494 31.0582 23.6447 31.0563 23.6399 31.0563V31.0014C23.6278 30.952 23.6343 30.8999 23.6581 30.8551C23.683 30.8142 23.7139 30.7772 23.7496 30.7453C23.7944 30.7138 23.8438 30.6891 23.8959 30.6722C23.9508 30.6539 24.0057 30.6356 24.0788 30.6173C24.0788 30.599 24.0605 30.5807 24.0605 30.5624C24.0605 30.5441 24.0422 30.5259 24.0422 30.5076C24.0422 30.4893 24.0239 30.4893 24.0057 30.471H23.9508C23.9369 30.4729 23.9241 30.4793 23.9142 30.4893C23.9094 30.4893 23.9047 30.4912 23.9013 30.4946C23.8978 30.4981 23.8959 30.5027 23.8959 30.5076V30.5807L23.6216 30.6539C23.6126 30.637 23.6079 30.6181 23.6079 30.599C23.6079 30.5799 23.6126 30.561 23.6216 30.5441C23.6357 30.5114 23.6542 30.4806 23.6764 30.4527C23.7085 30.4221 23.7456 30.3974 23.7862 30.3795C23.8338 30.3582 23.8826 30.3399 23.9325 30.3247C23.9737 30.311 24.0171 30.3048 24.0605 30.3064C24.104 30.3034 24.1476 30.3097 24.1886 30.3247C24.2074 30.3243 24.226 30.3293 24.2421 30.339C24.2583 30.3487 24.2714 30.3627 24.28 30.3795C24.3023 30.4074 24.3207 30.4382 24.3349 30.471L24.4263 30.8551C24.4263 30.8734 24.4263 30.8734 24.4446 30.8917C24.4629 30.9099 24.4446 30.9099 24.4629 30.9282C24.4812 30.9649 24.4812 30.9649 24.4995 31.0015L24.2251 31.0745V31.0197C24.1703 31.038 24.1703 31.038 24.152 31.0014C24.1703 31.0014 24.1703 31.0197 24.152 31.0014ZM24.0788 30.7453H24.0239C24.0057 30.7453 23.9874 30.7636 23.9691 30.7636C23.9552 30.7656 23.9424 30.772 23.9325 30.7819L23.8959 30.8185V30.8551C23.8959 30.8734 23.8959 30.8734 23.9142 30.8917C23.9325 30.9099 23.9325 30.9099 23.9508 30.9282C23.9691 30.9465 23.9691 30.9465 23.9874 30.9465H24.0422C24.0471 30.9465 24.0517 30.9446 24.0552 30.9412C24.0586 30.9377 24.0605 30.9331 24.0605 30.9282L24.0788 30.9099C24.0788 30.8917 24.0971 30.8917 24.0971 30.8734V30.7636V30.7453C24.0971 30.7636 24.0971 30.7453 24.0788 30.7453Z" fill="#9E2140"/>
<path d="M24.6462 30.16C24.6462 30.1783 24.6462 30.1783 24.6645 30.1783V30.2698C24.6645 30.2515 24.6828 30.2332 24.6828 30.2149C24.6828 30.1966 24.7011 30.1783 24.7194 30.16C24.7376 30.1418 24.7559 30.1235 24.7742 30.1235C24.7925 30.1235 24.8108 30.1052 24.8474 30.0869H25.0486C25.0669 30.0869 25.0852 30.1052 25.1217 30.1052C25.1583 30.1052 25.1583 30.1235 25.1766 30.16C25.1959 30.1802 25.2086 30.2057 25.2132 30.2332L25.3778 30.7453L25.1034 30.8368L24.9571 30.3978C24.9571 30.3795 24.9388 30.3612 24.9388 30.3429L24.9023 30.3064C24.8884 30.3044 24.8755 30.298 24.8657 30.2881H24.8291C24.8108 30.2881 24.8108 30.3064 24.7925 30.3064L24.7559 30.3429C24.7559 30.3612 24.7376 30.3795 24.7376 30.3978V30.4527L24.884 30.9099L24.6096 31.0014L24.4267 30.4161V30.3429C24.4267 30.3247 24.4267 30.3247 24.4084 30.3247C24.4084 30.3198 24.4065 30.3152 24.4031 30.3117C24.3996 30.3083 24.395 30.3064 24.3901 30.3064V30.2515L24.6462 30.16Z" fill="#9E2140"/>
<path d="M25.981 29.3004L26.4382 29.8857L26.2736 29.1541L26.6943 28.9529L27.1881 29.9223L26.9503 30.0503L26.5479 29.2273L26.7308 30.16L26.4748 30.2698L25.8529 29.5565L26.2553 30.3795L26.0175 30.5076L25.542 29.5199L25.981 29.3004Z" fill="#9E2140"/>
<path d="M27.7186 29.465V29.5199C27.7186 29.5382 27.7186 29.5565 27.7003 29.5565C27.6984 29.5703 27.692 29.5832 27.682 29.593C27.682 29.6113 27.6637 29.6296 27.6454 29.6479C27.6272 29.6662 27.6089 29.6845 27.5906 29.6845C27.5723 29.6845 27.5174 29.7394 27.4808 29.7394C27.4522 29.7526 27.4209 29.7589 27.3894 29.7577C27.3528 29.7577 27.3345 29.7394 27.3162 29.7394C27.2979 29.7394 27.2796 29.7211 27.2614 29.7028L27.2431 29.6845L27.2248 29.6662C27.2248 29.6614 27.2229 29.6567 27.2194 29.6533C27.216 29.6498 27.2113 29.6479 27.2065 29.6479C27.2065 29.6431 27.2046 29.6384 27.2011 29.635C27.1977 29.6316 27.193 29.6296 27.1882 29.6296C27.1604 29.5931 27.1473 29.5474 27.1516 29.5016C27.1538 29.4537 27.1733 29.4082 27.2065 29.3736C27.2445 29.3264 27.2874 29.2835 27.3345 29.2455C27.3799 29.2046 27.4289 29.1679 27.4808 29.1358C27.4625 29.1175 27.4625 29.0992 27.4443 29.0809L27.4077 29.0443C27.3894 29.0261 27.3894 29.0261 27.3711 29.0261C27.3612 29.0249 27.3511 29.0259 27.3416 29.029C27.3321 29.0322 27.3235 29.0374 27.3162 29.0443C27.2979 29.0443 27.2979 29.0626 27.2796 29.0809C27.2614 29.0992 27.2614 29.0992 27.2614 29.1175V29.1907L27.0236 29.337C27.0033 29.3036 26.9908 29.2661 26.987 29.2272C26.9841 29.1897 26.9904 29.1521 27.0053 29.1175C27.0231 29.077 27.0479 29.0398 27.0785 29.0078C27.1103 28.972 27.1473 28.9412 27.1882 28.9163C27.2254 28.8872 27.2695 28.8683 27.3162 28.8615C27.3528 28.8432 27.3894 28.8432 27.426 28.8249C27.4635 28.822 27.5011 28.8283 27.5357 28.8432C27.5632 28.8568 27.588 28.8754 27.6089 28.898L27.8283 29.2272C27.8283 29.2455 27.8466 29.2455 27.8466 29.2638C27.8466 29.2821 27.8649 29.2821 27.8649 29.3004L27.9015 29.337L27.9381 29.3736L27.7003 29.5382V29.5199L27.682 29.5016C27.7369 29.4833 27.7369 29.4833 27.7186 29.465ZM27.554 29.2638C27.5445 29.2743 27.5315 29.2808 27.5174 29.2821C27.5126 29.2821 27.5079 29.284 27.5045 29.2875C27.5011 29.2909 27.4991 29.2956 27.4991 29.3004L27.4625 29.337L27.426 29.3736C27.4077 29.3919 27.4077 29.3919 27.4077 29.4101V29.4467C27.4077 29.465 27.426 29.465 27.4443 29.465C27.4625 29.465 27.4625 29.4833 27.4808 29.4833H27.5174C27.5357 29.4833 27.5357 29.4833 27.554 29.465C27.554 29.4602 27.5559 29.4555 27.5594 29.4521C27.5628 29.4487 27.5674 29.4467 27.5723 29.4467V29.3553C27.5723 29.337 27.5723 29.337 27.554 29.3187C27.5357 29.3004 27.554 29.3004 27.5357 29.2821V29.2638C27.5906 29.2455 27.5723 29.2455 27.554 29.2638Z" fill="#9E2140"/>
<path d="M27.9016 28.4957L27.9199 28.514L27.9382 28.5323C27.9431 28.5323 27.9477 28.5342 27.9512 28.5376C27.9546 28.541 27.9565 28.5457 27.9565 28.5505L27.9748 28.5688V28.5871L27.9931 28.6054V28.642C27.9804 28.6198 27.974 28.5944 27.9748 28.5688C27.9721 28.5431 27.9786 28.5171 27.9931 28.4957C28.0114 28.4774 28.0114 28.4591 28.0297 28.4225C28.0505 28.3999 28.0753 28.3813 28.1028 28.3676L28.2492 28.5688L28.1943 28.6237C28.176 28.642 28.176 28.6603 28.1577 28.6969V28.77C28.1623 28.7975 28.175 28.823 28.1943 28.8432L28.4138 29.1175L28.176 29.3004L27.8102 28.8432C27.8102 28.8383 27.8083 28.8337 27.8048 28.8302C27.8014 28.8268 27.7968 28.8249 27.7919 28.8249L27.7736 28.8066L27.7553 28.7883C27.7505 28.7883 27.7458 28.7864 27.7424 28.783C27.739 28.7795 27.737 28.7749 27.737 28.77C27.7271 28.7602 27.7207 28.7473 27.7188 28.7334L27.9016 28.4957Z" fill="#9E2140"/>
<path d="M28.1026 27.8738L28.5781 28.3311L28.5049 27.9104L28.7427 27.6909L28.7976 28.1116L29.3097 28.203L29.0719 28.4408L28.5964 28.3494L28.889 28.6237L28.6878 28.8432L27.9014 28.075L28.1026 27.8738Z" fill="#9E2140"/>
<path d="M29.6391 27.3068C29.6697 27.3389 29.6945 27.376 29.7123 27.4166C29.7272 27.4511 29.7335 27.4888 29.7306 27.5263C29.7306 27.5629 29.7123 27.6178 29.7123 27.6543C29.695 27.7007 29.6703 27.7439 29.6391 27.7824C29.6011 27.835 29.5582 27.884 29.5111 27.9287C29.4727 27.9598 29.4294 27.9845 29.3831 28.0018C29.3347 28.011 29.2851 28.011 29.2368 28.0018C29.1788 27.9852 29.1234 27.9606 29.0722 27.9287C29.0257 27.8967 28.9828 27.86 28.9441 27.8189C28.9076 27.7791 28.8879 27.7267 28.8893 27.6726C28.88 27.6243 28.88 27.5746 28.8893 27.5263C28.8984 27.4713 28.9239 27.4203 28.9624 27.38C29.0015 27.3224 29.0511 27.2727 29.1087 27.2337C29.1312 27.2148 29.1579 27.2016 29.1866 27.1953C29.2152 27.1889 29.245 27.1895 29.2733 27.1971C29.3298 27.2005 29.3854 27.2128 29.438 27.2337C29.4965 27.257 29.5518 27.2878 29.6026 27.3251L29.2916 27.7641C29.2965 27.7641 29.3011 27.766 29.3046 27.7694C29.308 27.7729 29.3099 27.7775 29.3099 27.7824C29.3282 27.8006 29.3282 27.8006 29.3465 27.8189L29.438 27.8189C29.4562 27.8189 29.4562 27.8189 29.4745 27.8007L29.5111 27.7641C29.5111 27.7458 29.5294 27.7458 29.5294 27.7275V27.6909C29.5294 27.6726 29.5294 27.6726 29.5111 27.6543C29.4928 27.636 29.4928 27.636 29.4745 27.6178L29.6391 27.3068ZM29.2368 27.38H29.1819C29.172 27.3788 29.1619 27.3798 29.1524 27.383C29.1429 27.3861 29.1343 27.3914 29.127 27.3983C29.1087 27.3983 29.1087 27.4166 29.0904 27.4349C29.0835 27.4421 29.0783 27.4507 29.0751 27.4602C29.072 27.4697 29.071 27.4798 29.0722 27.4897V27.5446C29.0722 27.5629 29.0904 27.5812 29.0904 27.5995C29.0904 27.6178 29.1087 27.636 29.127 27.636L29.2733 27.4166C29.2733 27.38 29.2551 27.38 29.2368 27.38Z" fill="#9E2140"/>
<path d="M29.2004 26.5021L29.4016 26.5935L29.4747 26.4472L29.6393 26.5204L29.5662 26.6667L29.8588 26.7947C29.866 26.8016 29.8747 26.8069 29.8842 26.81C29.8937 26.8132 29.9038 26.8142 29.9137 26.813H29.9503C29.9686 26.813 29.9686 26.813 29.9686 26.7947C29.9785 26.7848 29.9849 26.772 29.9868 26.7581V26.685L30.1515 26.7581C30.1515 26.7764 30.1332 26.7947 30.1332 26.813C30.1332 26.8313 30.1149 26.8496 30.1149 26.8679C30.0965 26.9046 30.0965 26.9046 30.0782 26.9411C30.0642 26.9738 30.0457 27.0046 30.0234 27.0325C30.0051 27.0508 29.9868 27.0873 29.9503 27.1056C29.9288 27.1202 29.9029 27.1267 29.8771 27.1239C29.8455 27.1268 29.8137 27.1204 29.7857 27.1056L29.4199 26.941L29.365 27.0691L29.2004 26.9959L29.2552 26.8679L29.1455 26.813L29.2004 26.5021Z" fill="#9E2140"/>
</g>
<defs>
<clipPath id="clip0_111_454">
<rect width="39.5629" height="40" fill="white" transform="translate(0.153809)"/>
</clipPath>
</defs>
</svg>
