<svg xmlns="http://www.w3.org/2000/svg" viewBox="0 0 314.68 63.99"><defs><style>.cls-1{fill:#fff;}</style></defs><g id="Layer_2" data-name="Layer 2"><g id="Layer_1-2" data-name="Layer 1"><path class="cls-1" d="M19.93,12.77a18.06,18.06,0,0,1,8.7-2A17.29,17.29,0,0,1,41.39,16l.92.93L50,9.48l-.82-.94a23.75,23.75,0,0,0-9.08-6.39A31.56,31.56,0,0,0,28.2,0,30.15,30.15,0,0,0,13.78,3.45,25.94,25.94,0,0,0,3.66,13.06,26.46,26.46,0,0,0,0,26.86,26.45,26.45,0,0,0,3.66,40.65a25.87,25.87,0,0,0,10.08,9.6,29.68,29.68,0,0,0,14.32,3.46A35.87,35.87,0,0,0,39,52a29.1,29.1,0,0,0,9.36-4.91l.5-.39V25H37.45V41a19,19,0,0,1-8.89,2,17.47,17.47,0,0,1-8.62-2.11,15.19,15.19,0,0,1-5.88-5.75,16.24,16.24,0,0,1-2.13-8.27,16.54,16.54,0,0,1,2.13-8.42A14.7,14.7,0,0,1,19.93,12.77Z"/><path class="cls-1" d="M68.54,15.81V12.48H57.46V53H69V33.31c0-3.41.86-6,2.54-7.77s4-2.62,7.14-2.62a9.87,9.87,0,0,1,1.81.2l1.56.29V12.06H80.7C75.5,12.06,71.42,13.32,68.54,15.81Z"/><path class="cls-1" d="M114.86,14.67a21.31,21.31,0,0,0-10.54-2.61A21.79,21.79,0,0,0,93.6,14.71a19.28,19.28,0,0,0-7.49,7.42,21.24,21.24,0,0,0-2.69,10.61,20.92,20.92,0,0,0,2.77,10.71,19.24,19.24,0,0,0,7.87,7.42,26.87,26.87,0,0,0,20.89,1,17.26,17.26,0,0,0,7-5l.72-.87-6.42-7.38-1,1a12.42,12.42,0,0,1-9.35,3.72,12.17,12.17,0,0,1-7.41-2.18,8.8,8.8,0,0,1-3.15-4.26h29.23l.1-1.21c.09-1.18.14-2.09.14-2.73a22.32,22.32,0,0,0-2.61-10.89A18.81,18.81,0,0,0,114.86,14.67Zm-10.54,7.12A9.18,9.18,0,0,1,110.68,24a8.72,8.72,0,0,1,2.74,4.36H95.17A8.93,8.93,0,0,1,98,24,9.33,9.33,0,0,1,104.32,21.79Z"/><path class="cls-1" d="M159,14.67a21.31,21.31,0,0,0-10.54-2.61,21.75,21.75,0,0,0-10.71,2.65,19.24,19.24,0,0,0-7.5,7.42,21.24,21.24,0,0,0-2.69,10.61,20.92,20.92,0,0,0,2.77,10.71,19.24,19.24,0,0,0,7.87,7.42,26.87,26.87,0,0,0,20.89,1,17.26,17.26,0,0,0,7-5l.72-.87-6.42-7.38-1,1A12.42,12.42,0,0,1,150,43.34a12.19,12.19,0,0,1-7.41-2.18,8.8,8.8,0,0,1-3.15-4.26h29.23l.1-1.21c.09-1.18.14-2.09.14-2.73a22.21,22.21,0,0,0-2.61-10.89A18.74,18.74,0,0,0,159,14.67Zm-10.54,7.12A9.18,9.18,0,0,1,154.8,24a8.72,8.72,0,0,1,2.74,4.36H139.29A8.93,8.93,0,0,1,142.1,24,9.33,9.33,0,0,1,148.44,21.79Z"/><path class="cls-1" d="M210,16.62c-3.13-3-7.3-4.56-12.41-4.56a21.28,21.28,0,0,0-8,1.44,15.76,15.76,0,0,0-3.72,2.12V12.48H174.79V53h11.5V32.53c0-3.32.83-5.86,2.47-7.56a8.91,8.91,0,0,1,6.78-2.54,7.4,7.4,0,0,1,5.71,2.09c1.31,1.43,2,3.64,2,6.59V53h11.51V30C214.74,24.15,213.15,19.65,210,16.62Z"/><rect class="cls-1" x="250.39" y="61.07" width="9.24" height="2.92"/><polygon class="cls-1" points="250.36 11.76 250.36 40.95 221.17 40.95 250.36 11.76"/><path class="cls-1" d="M288.38,0H263.84a1.77,1.77,0,0,0-1.77,1.74V41h11.71V11.75h14.6a14.6,14.6,0,1,1,0,29.2h-14.6V52.66h14.6a26.31,26.31,0,0,0,0-52.62Z"/></g></g></svg>