<svg xmlns="http://www.w3.org/2000/svg" viewBox="0 0 288.16 79.67"><defs><style>.cls-1{fill:#fff;}</style></defs><g id="Layer_2" data-name="Layer 2"><g id="Layer_1-2" data-name="Layer 1"><path class="cls-1" d="M72.28,0H15.13a15.14,15.14,0,0,0,0,30.27H28.59c.7,0,1.4,0,2.09.08-3.22,4.35-5.81,10.5-5.81,19.08,0,20.07,14.22,28.77,15.85,29.7l.93.54h2.13l1-.54c1.61-.93,15.85-9.63,15.85-29.7a32.76,32.76,0,0,0-3.33-15,24.74,24.74,0,0,0-1.45-2.54s-.29-.49-.88-1.28c0-.08-.12-.15-.17-.24a31,31,0,0,0-3.36-3.6,31.91,31.91,0,0,0-4.07-3.15,34.76,34.76,0,0,0-6.91-3.49l-.12,0s0,0-.06,0v0a25,25,0,0,0-3-.86,36,36,0,0,0-8.66-1H15.13a3,3,0,0,1,0-6.09H72.28a3,3,0,1,1,0,6.09H56.88a36.73,36.73,0,0,0-10.75,1.57,37.75,37.75,0,0,1,4.67,3,31.77,31.77,0,0,1,6.08-.56h15.4a7.08,7.08,0,1,0,0-14.15H15.13a7.08,7.08,0,0,0,0,14.15H28.59a32.13,32.13,0,0,1,10,1.54,27.83,27.83,0,0,1,4.16,1.68A18.05,18.05,0,0,1,46.85,28l.41.35c.22.17.43.36.66.55.44.39.91.83,1.4,1.3A7.42,7.42,0,0,1,50,31l.1.09a22.25,22.25,0,0,1,3.34,4.84,28.71,28.71,0,0,1,3.08,13.53c0,18.28-13.26,25.88-13.82,26.21h0c-.56-.33-13.82-7.94-13.82-26.21,0-8,2.51-14,6.47-18.42a18.19,18.19,0,0,1,4,1.65c-3.84,3.68-6.43,9.11-6.43,16.77,0,12,6.45,18.66,9.81,21.3,3.35-2.66,9.79-9.35,9.79-21.3,0-6.16-1.67-10.89-4.32-14.42h0a21,21,0,0,0-9.6-7h0a28.7,28.7,0,0,0-10-1.77H15.13A11.11,11.11,0,0,1,15.13,4H72.28a11.11,11.11,0,1,1,0,22.21H56.88c-.7,0-1.4,0-2.09.08A26.11,26.11,0,0,1,58,30.27h14.3A15.14,15.14,0,1,0,72.28,0ZM42.72,65.24A22.85,22.85,0,0,1,37,49.43c0-6.26,1.93-11.09,5.76-14.41l.53.49c.18.17.36.34.53.52s.35.36.51.55c2.79,3.2,4.21,7.49,4.21,12.85A22.82,22.82,0,0,1,42.72,65.24Z"/><path class="cls-1" d="M117.6,51.78a5.14,5.14,0,0,1-1.87.94,8.39,8.39,0,0,1-2.32.32,6.6,6.6,0,0,1-4.75-1.61A6.17,6.17,0,0,1,107,46.75v-9h-3.07V34.28H107V30h4.37v4.26h5v3.49h-5v8.87a3,3,0,0,0,.66,2.08,2.47,2.47,0,0,0,1.92.72,3.86,3.86,0,0,0,2.45-.77Z"/><path class="cls-1" d="M130.59,33.93v4.16a5.54,5.54,0,0,0-1-.11,5.26,5.26,0,0,0-4,1.49,5.89,5.89,0,0,0-1.43,4.28v9H119.8V34.14H124v2.72Q125.85,33.93,130.59,33.93Z"/><path class="cls-1" d="M146.23,35.9c1.45,1.32,2.18,3.3,2.18,6V52.79h-4.12V50.52A5.07,5.07,0,0,1,142,52.39a8.94,8.94,0,0,1-3.58.65,8.74,8.74,0,0,1-3.67-.72,5.67,5.67,0,0,1-2.43-2,5,5,0,0,1-.85-2.88,4.94,4.94,0,0,1,1.87-4q1.86-1.52,5.88-1.52H144v-.28a3.82,3.82,0,0,0-1.17-3,5.05,5.05,0,0,0-3.47-1,10.18,10.18,0,0,0-3.09.49,7.66,7.66,0,0,0-2.57,1.36L132,36.24a10.32,10.32,0,0,1,3.52-1.71,15.59,15.59,0,0,1,4.37-.6A9.14,9.14,0,0,1,146.23,35.9Zm-4,13.21A4.1,4.1,0,0,0,144,47V44.79h-4.5q-3.78,0-3.78,2.48a2.24,2.24,0,0,0,1,1.89,4.29,4.29,0,0,0,2.62.7A5.63,5.63,0,0,0,142.24,49.11Z"/><path class="cls-1" d="M168.84,36Q171,38,171,42.1V52.79h-4.36V42.66A5.21,5.21,0,0,0,165.45,39a4.25,4.25,0,0,0-3.28-1.24,5,5,0,0,0-3.81,1.45A5.76,5.76,0,0,0,157,43.36v9.43H152.6V34.14h4.16v2.41a6.93,6.93,0,0,1,2.72-2,9.84,9.84,0,0,1,3.7-.66A7.82,7.82,0,0,1,168.84,36Z"/><path class="cls-1" d="M176.46,52.44a10.85,10.85,0,0,1-3.46-1.5l1.68-3.32a10.65,10.65,0,0,0,3,1.35,12.39,12.39,0,0,0,3.47.5c2.61,0,3.91-.68,3.91-2.06a1.38,1.38,0,0,0-1-1.36,16.83,16.83,0,0,0-3.2-.73,25.73,25.73,0,0,1-3.75-.81,5.71,5.71,0,0,1-2.52-1.59,4.42,4.42,0,0,1-1.06-3.16,5,5,0,0,1,2.22-4.24,10.06,10.06,0,0,1,6-1.59,17.34,17.34,0,0,1,3.84.44,10.64,10.64,0,0,1,3.14,1.17l-1.67,3.31a10.39,10.39,0,0,0-5.35-1.39,6,6,0,0,0-2.92.57,1.74,1.74,0,0,0-1,1.53A1.51,1.51,0,0,0,178.88,41a17.3,17.3,0,0,0,3.3.82,25.11,25.11,0,0,1,3.67.8,5.85,5.85,0,0,1,2.47,1.54,4.31,4.31,0,0,1,1,3.07,4.88,4.88,0,0,1-2.27,4.2A10.8,10.8,0,0,1,180.89,53,16.49,16.49,0,0,1,176.46,52.44Z"/><path class="cls-1" d="M196.54,33.16v1.12h5.14v3.49h-5v15h-4.37v-15h-3.07V34.28h3.07V33.09a6.37,6.37,0,0,1,1.75-4.73,8,8,0,0,1,8.87-.72l-1.22,3.29a4.13,4.13,0,0,0-2.41-.77Q196.54,30.16,196.54,33.16Z"/><path class="cls-1" d="M206.22,51.81a8.87,8.87,0,0,1-3.55-3.4,10.22,10.22,0,0,1,0-9.87,9,9,0,0,1,3.55-3.39,11.33,11.33,0,0,1,10.23,0A9.05,9.05,0,0,1,220,38.54a10.22,10.22,0,0,1,0,9.87,8.94,8.94,0,0,1-3.55,3.4,11.25,11.25,0,0,1-10.23,0Zm9.08-4.12a5.78,5.78,0,0,0,1.57-4.23,5.77,5.77,0,0,0-1.57-4.22,5.35,5.35,0,0,0-4-1.61,5.3,5.3,0,0,0-4,1.61,5.8,5.8,0,0,0-1.55,4.22,5.8,5.8,0,0,0,1.55,4.23,5.71,5.71,0,0,0,8,0Z"/><path class="cls-1" d="M234.86,33.93v4.16a5.64,5.64,0,0,0-1-.11,5.28,5.28,0,0,0-4,1.49,5.93,5.93,0,0,0-1.43,4.28v9h-4.37V34.14h4.16v2.72Q230.11,33.93,234.86,33.93Z"/><path class="cls-1" d="M266.3,36q2.06,2.06,2.06,6.13V52.79H264V42.66A5.44,5.44,0,0,0,262.91,39a3.9,3.9,0,0,0-3.11-1.24,4.55,4.55,0,0,0-3.53,1.45,5.92,5.92,0,0,0-1.33,4.14v9.46h-4.36V42.66A5.39,5.39,0,0,0,249.49,39a3.87,3.87,0,0,0-3.1-1.24,4.55,4.55,0,0,0-3.55,1.43,6,6,0,0,0-1.31,4.16v9.46h-4.37V34.14h4.16v2.37a7,7,0,0,1,2.62-1.92,8.93,8.93,0,0,1,3.49-.66,8.34,8.34,0,0,1,3.72.79A6,6,0,0,1,253.72,37a7.81,7.81,0,0,1,3-2.29,9.6,9.6,0,0,1,4-.82A7.61,7.61,0,0,1,266.3,36Z"/><path class="cls-1" d="M286,35.9c1.45,1.32,2.18,3.3,2.18,6V52.79H284V50.52a5.07,5.07,0,0,1-2.29,1.87,8.94,8.94,0,0,1-3.58.65,8.74,8.74,0,0,1-3.67-.72,5.7,5.7,0,0,1-2.42-2,5.06,5.06,0,0,1-.86-2.88,4.94,4.94,0,0,1,1.87-4c1.24-1,3.21-1.52,5.88-1.52h4.82v-.28a3.79,3.79,0,0,0-1.17-3,5,5,0,0,0-3.47-1,10.18,10.18,0,0,0-3.09.49,7.76,7.76,0,0,0-2.57,1.36l-1.71-3.17a10.37,10.37,0,0,1,3.53-1.71,15.52,15.52,0,0,1,4.36-.6A9.14,9.14,0,0,1,286,35.9Zm-4,13.21A4,4,0,0,0,283.79,47V44.79h-4.5c-2.52,0-3.77.83-3.77,2.48a2.23,2.23,0,0,0,.94,1.89,4.29,4.29,0,0,0,2.62.7A5.67,5.67,0,0,0,282,49.11Z"/></g></g></svg>