<svg width="57" height="51" viewBox="0 0 57 51" fill="none" xmlns="http://www.w3.org/2000/svg">
<path d="M46.4387 0H9.71932C7.1423 0.0022773 4.67147 1.02328 2.84924 2.83889C1.02702 4.65449 0.00228561 7.11634 0 9.68399C-1.01506e-06 12.2531 1.02371 14.7172 2.84619 16.5346C4.66867 18.3521 7.1408 19.3743 9.71932 19.3766H18.351C18.7999 19.3766 19.2487 19.3938 19.6976 19.4282C17.1417 22.9807 15.8285 27.2717 15.9601 31.6407C15.9601 44.4896 25.1011 50.0626 26.1455 50.656L26.7411 51H28.1135L28.7264 50.656C29.7622 50.0626 38.9118 44.4896 38.9118 31.6407C38.9749 28.3117 38.2411 25.0156 36.7711 22.0255C36.4951 21.4646 36.1837 20.9217 35.8389 20.4C35.6658 20.1184 35.4786 19.8457 35.2778 19.583C35.2778 19.5314 35.2002 19.4884 35.1656 19.4282C34.5094 18.6035 33.7878 17.8328 33.0077 17.1233C32.1996 16.3849 31.3337 15.7119 30.4182 15.1108C29.0282 14.2019 27.5399 13.4518 25.9815 12.8747H25.9038C25.2773 12.6511 24.6373 12.4673 23.9876 12.3243C22.1649 11.884 20.2956 11.6645 18.4201 11.6707H9.78838C9.27022 11.6684 8.77403 11.4617 8.40844 11.0958C8.04284 10.7299 7.8376 10.2347 7.83761 9.71838C7.83761 9.20289 8.04313 8.7085 8.40897 8.34399C8.7748 7.97948 9.27101 7.77471 9.78838 7.77471H46.5077C47.0258 7.77471 47.5229 7.9792 47.8901 8.34347C48.2574 8.70773 48.4648 9.2021 48.4671 9.71838C48.4671 10.2362 48.2607 10.7327 47.8932 11.0989C47.5257 11.465 47.0273 11.6707 46.5077 11.6707H36.5467C34.2077 11.6646 31.8806 12.0037 29.6413 12.6769C30.6878 13.2449 31.6891 13.8918 32.6365 14.612C33.9253 14.367 35.2347 14.2461 36.5467 14.2508H46.4387C47.6451 14.2508 48.8021 13.7732 49.6552 12.9233C50.5083 12.0733 50.9875 10.9204 50.9875 9.71838C50.9852 8.51781 50.505 7.3672 49.6522 6.51907C48.7993 5.67094 47.6436 5.19461 46.4387 5.19461H9.71932C8.51516 5.19461 7.36034 5.67122 6.50887 6.5196C5.6574 7.36797 5.17903 8.5186 5.17903 9.71838C5.17789 10.3132 5.29449 10.9024 5.52216 11.4522C5.74982 12.002 6.0841 12.5018 6.50582 12.9227C6.92753 13.3437 7.42844 13.6777 7.97986 13.9056C8.53127 14.1335 9.12235 14.2508 9.71932 14.2508H18.351C20.5306 14.2418 22.6979 14.5756 24.773 15.2398C25.6903 15.5242 26.5825 15.8838 27.4402 16.3148C28.3929 16.7412 29.2818 17.2969 30.0815 17.9661L30.3491 18.1897L30.7721 18.5423C31.0569 18.7917 31.359 19.0755 31.6352 19.4024C31.8014 19.5522 31.9571 19.7131 32.1013 19.884L32.1618 19.9442C33.0105 20.8785 33.733 21.9194 34.3111 23.0403C35.6696 25.7231 36.3483 28.6965 36.2878 31.7008C36.2878 43.4059 27.7682 48.2737 27.4057 48.4801C27.0432 48.2737 18.5237 43.3973 18.5237 31.7008C18.5237 26.618 20.1378 22.7221 22.6842 19.9184C23.5859 20.1651 24.4551 20.5173 25.2737 20.9676C22.8136 23.3241 21.1477 26.8073 21.1477 31.7008C21.0746 34.3041 21.6051 36.8891 22.698 39.2548C23.7908 41.6206 25.4166 43.7032 27.4489 45.341C29.4771 43.7002 31.0994 41.6167 32.1905 39.2516C33.2816 36.8864 33.8122 34.3029 33.7414 31.7008C33.8639 28.4059 32.8864 25.1636 30.9619 22.4813V22.4813C29.3836 20.4255 27.2438 18.8668 24.7989 17.9919V17.9919C22.7378 17.2333 20.5569 16.8488 18.3597 16.8567H9.72796C8.79093 16.8567 7.8631 16.6726 6.99751 16.3151C6.13192 15.9576 5.34555 15.4335 4.68338 14.7729C4.0212 14.1124 3.49622 13.3282 3.13843 12.4654C2.78063 11.6025 2.59702 10.6778 2.59815 9.74418C2.59815 7.86012 3.34934 6.05322 4.68643 4.72099C6.02353 3.38875 7.83702 2.64031 9.72796 2.64031H46.4472C47.3843 2.63918 48.3123 2.8221 49.1784 3.17859C50.0444 3.53509 50.8314 4.05817 51.4943 4.71794C52.1573 5.37771 52.6833 6.16122 53.0421 7.02367C53.401 7.88611 53.5857 8.81057 53.5857 9.74418C53.5857 11.6305 52.8336 13.4396 51.4949 14.7735C50.1562 16.1073 48.3405 16.8567 46.4472 16.8567H36.5467C36.0978 16.8567 35.649 16.8739 35.2001 16.9083C35.9641 17.6841 36.652 18.5308 37.2545 19.4368H46.4387C49.018 19.4345 51.4909 18.4126 53.3148 16.5954C55.1386 14.7781 56.1643 12.3141 56.1666 9.74418C56.1722 8.46732 55.9249 7.20189 55.4387 6.02049C54.9525 4.83908 54.2369 3.76493 53.3331 2.85965C52.4293 1.95436 51.3551 1.23575 50.172 0.745023C48.9889 0.2543 47.7202 0.00111944 46.4387 0V0ZM27.4489 41.7632C24.9663 38.9817 23.6419 35.3615 23.7458 31.6407C23.7458 27.6415 24.9888 24.5454 27.4489 22.4297L27.7941 22.7393L28.1308 23.0661C28.243 23.1865 28.3552 23.2983 28.4588 23.4187C30.2455 25.4656 31.1605 28.2177 31.1605 31.6407C31.2621 35.3627 29.9346 38.983 27.4489 41.7632V41.7632Z" fill="white"/>
</svg>
