<svg width="269" height="245" viewBox="0 0 269 245" fill="none" xmlns="http://www.w3.org/2000/svg">
<path d="M222.365 0H46.5396C34.1999 0.01094 22.3687 4.91577 13.6432 13.6378C4.91772 22.3598 0.0109443 34.1863 0 46.5211C-4.86047e-06 58.8631 4.90191 70.7001 13.6286 79.4311C22.3552 88.162 34.1927 93.0725 46.5396 93.0835H87.8713C90.0206 93.0835 92.1698 93.1661 94.3191 93.3314C82.0807 110.397 75.7927 131.011 76.4226 151.999C76.4226 213.724 120.193 240.497 125.194 243.347L128.046 245H134.618L137.552 243.347C142.512 240.497 186.324 213.724 186.324 151.999C186.626 136.007 183.112 120.173 176.073 105.809C174.752 103.114 173.261 100.506 171.609 98C170.781 96.6472 169.884 95.3372 168.923 94.0751C168.923 93.8272 168.551 93.6206 168.386 93.3314C165.244 89.3699 161.788 85.6672 158.053 82.2589C154.183 78.7118 150.037 75.4789 145.653 72.5911C138.998 68.2248 131.871 64.6214 124.409 61.8491H124.037C121.037 60.775 117.972 59.8918 114.861 59.2049C106.134 57.0898 97.1824 56.0356 88.2021 56.065H46.8703C44.3891 56.054 42.0132 55.0611 40.2626 53.3035C38.512 51.5458 37.5293 49.1666 37.5293 46.6864C37.5293 44.21 38.5134 41.835 40.2652 40.0839C42.0169 38.3328 44.3929 37.3491 46.8703 37.3491H222.695C225.177 37.3491 227.557 38.3315 229.315 40.0814C231.074 41.8313 232.067 44.2062 232.078 46.6864C232.078 49.1737 231.089 51.5592 229.33 53.318C227.57 55.0768 225.184 56.065 222.695 56.065H174.999C163.799 56.036 152.656 57.665 141.933 60.8988C146.944 63.6273 151.739 66.735 156.275 70.1948C162.446 69.0181 168.716 68.437 174.999 68.4596H222.365C228.142 68.4596 233.682 66.1656 237.767 62.0823C241.852 57.9991 244.147 52.461 244.147 46.6864C244.136 40.9189 241.836 35.3914 237.752 31.3171C233.669 27.2428 228.135 24.9545 222.365 24.9545H46.5396C40.7736 24.9545 35.244 27.2441 31.1668 31.3196C27.0897 35.3951 24.799 40.9227 24.799 46.6864C24.7936 49.5437 25.3519 52.3741 26.4421 55.0155C27.5322 57.6569 29.1329 60.0574 31.1522 62.0798C33.1715 64.1022 35.57 65.7067 38.2104 66.8014C40.8508 67.8961 43.6811 68.4596 46.5396 68.4596H87.8713C98.3078 68.4164 108.686 70.0199 118.622 73.2108C123.015 74.5773 127.286 76.3046 131.394 78.3752C135.956 80.4233 140.212 83.0929 144.041 86.3078L145.323 87.382L147.348 89.0759C148.712 90.274 150.158 91.6374 151.481 93.2074C152.276 93.9272 153.022 94.7002 153.713 95.5211L154.002 95.8103C158.066 100.299 161.526 105.299 164.294 110.684C170.799 123.572 174.049 137.856 173.759 152.288C173.759 208.519 132.964 231.903 131.228 232.895C129.492 231.903 88.698 208.477 88.698 152.288C88.698 127.871 96.4271 109.155 108.62 95.6864C112.938 96.8717 117.1 98.5636 121.019 100.727C109.24 112.047 101.263 128.78 101.263 152.288C100.913 164.794 103.453 177.212 108.686 188.577C113.919 199.942 121.704 209.947 131.435 217.815C141.147 209.932 148.915 199.923 154.14 188.561C159.364 177.199 161.905 164.789 161.566 152.288C162.153 136.46 157.472 120.884 148.257 107.998C140.699 98.1226 130.453 90.6346 118.746 86.4317C108.877 82.7876 98.4339 80.9405 87.9127 80.9781H46.581C42.0941 80.9781 37.6514 80.094 33.5066 78.3764C29.3619 76.6588 25.5964 74.1414 22.4257 70.9681C19.255 67.7948 16.7412 64.0278 15.0279 59.8826C13.3146 55.7374 12.4355 51.2953 12.4409 46.8103C12.4409 37.7594 16.0378 29.0792 22.4403 22.6793C28.8428 16.2793 37.5265 12.6838 46.581 12.6838H222.406C226.893 12.6784 231.337 13.5571 235.484 15.2697C239.631 16.9823 243.399 19.4951 246.573 22.6646C249.748 25.8341 252.267 29.598 253.985 33.7411C255.703 37.8843 256.588 42.3253 256.588 46.8103C256.588 55.8722 252.986 64.5629 246.576 70.9706C240.166 77.3783 231.472 80.9781 222.406 80.9781H174.999C172.849 80.9781 170.7 81.0607 168.551 81.226C172.209 84.953 175.503 89.0203 178.388 93.3727H222.365C234.716 93.3618 246.557 88.4526 255.29 79.7228C264.024 70.993 268.935 59.1561 268.946 46.8103C268.973 40.6763 267.789 34.5973 265.46 28.9219C263.132 23.2466 259.706 18.0864 255.378 13.7375C251.051 9.38861 245.907 5.93643 240.242 3.57903C234.576 1.22164 228.501 0.0053777 222.365 0ZM131.435 200.627C119.548 187.265 113.206 169.874 113.704 151.999C113.704 132.788 119.656 117.914 131.435 107.75L133.088 109.238L134.7 110.808C135.238 111.386 135.775 111.923 136.271 112.502C144.827 122.335 149.208 135.556 149.208 151.999C149.694 169.879 143.338 187.271 131.435 200.627Z" fill="url(#paint0_linear_34_275)"/>
<defs>
<linearGradient id="paint0_linear_34_275" x1="-161.524" y1="273.094" x2="346.167" y2="-38.231" gradientUnits="userSpaceOnUse">
<stop stop-color="#00DA7A"/>
<stop offset="1" stop-color="#006D53"/>
</linearGradient>
</defs>
</svg>
